<svg width="120" height="29" viewBox="0 0 120 29" fill="none" xmlns="http://www.w3.org/2000/svg">
<rect width="120" height="29" rx="8" fill="black"/>
<path d="M13.6758 19.0938C14.0156 19.0938 14.209 18.9297 14.332 18.5488L14.9707 16.7324H18.2051L18.8496 18.5547C18.9668 18.9297 19.1602 19.0938 19.5117 19.0938C19.8926 19.0938 20.168 18.8418 20.168 18.4961C20.168 18.3848 20.1445 18.2734 20.0859 18.1094L17.5078 11.1309C17.332 10.6621 17.0508 10.4512 16.5938 10.4512C16.1309 10.4512 15.8438 10.668 15.6738 11.1367L13.1016 18.1094C13.043 18.2676 13.0195 18.3965 13.0195 18.4961C13.0195 18.8535 13.2832 19.0938 13.6758 19.0938ZM15.3047 15.6602L16.5645 11.9512H16.5996L17.8711 15.6602H15.3047ZM23.2852 19.1055C24.2461 19.1055 24.8965 18.625 25.2129 17.9043H25.2305V18.4785C25.2305 18.877 25.5176 19.1113 25.875 19.1113C26.2441 19.1113 26.502 18.877 26.502 18.4785V11.1016C26.502 10.6855 26.2383 10.4336 25.8691 10.4336C25.4941 10.4336 25.2305 10.6855 25.2305 11.1016V13.8613H25.207C24.8613 13.1816 24.1582 12.7363 23.2734 12.7363C21.7266 12.7363 20.6953 13.9727 20.6953 15.918C20.6953 17.8633 21.7266 19.1055 23.2852 19.1055ZM23.6191 18.0332C22.6172 18.0332 21.9902 17.2188 21.9902 15.918C21.9902 14.623 22.6172 13.8027 23.6191 13.8027C24.5918 13.8027 25.2422 14.6406 25.2422 15.918C25.2422 17.207 24.5918 18.0332 23.6191 18.0332ZM30.4512 19.1172C32.2148 19.1172 33.375 17.9043 33.375 15.918C33.375 13.9375 32.209 12.7246 30.4512 12.7246C28.6934 12.7246 27.5273 13.9375 27.5273 15.918C27.5273 17.9043 28.6875 19.1172 30.4512 19.1172ZM30.4512 18.0742C29.4609 18.0742 28.8164 17.2891 28.8164 15.918C28.8164 14.5527 29.4609 13.7676 30.4512 13.7676C31.4414 13.7676 32.0859 14.5527 32.0859 15.918C32.0859 17.2891 31.4473 18.0742 30.4512 18.0742ZM35.0039 19.1113C35.373 19.1113 35.6309 18.877 35.6309 18.4785V17.9512H35.6543C36.0352 18.666 36.7383 19.1055 37.6348 19.1055C39.2051 19.1055 40.2129 17.875 40.2129 15.918C40.2129 13.9668 39.1992 12.7363 37.6465 12.7363C36.7734 12.7363 36.0645 13.1699 35.6953 13.8848H35.666V11.1016C35.666 10.6855 35.4023 10.4336 35.0332 10.4336C34.6641 10.4336 34.4004 10.6855 34.4004 11.1016V18.4785C34.4004 18.877 34.6406 19.1113 35.0039 19.1113ZM37.2949 18.0332C36.3398 18.0332 35.6602 17.2012 35.6602 15.918C35.6602 14.6465 36.3398 13.8027 37.2949 13.8027C38.291 13.8027 38.9121 14.623 38.9121 15.918C38.9121 17.2246 38.2969 18.0332 37.2949 18.0332ZM43.8691 19.1172C45.0176 19.1172 45.9141 18.6543 46.3184 17.8457C46.3711 17.7227 46.4062 17.6055 46.4062 17.5059C46.4062 17.1895 46.1836 16.9902 45.8789 16.9902C45.6973 16.9902 45.5684 17.0547 45.4336 17.2129C44.9648 17.8516 44.5312 18.0918 43.8398 18.0918C42.832 18.0918 42.1992 17.3887 42.1992 16.2637V16.2344H45.9258C46.3184 16.2344 46.5527 16 46.5527 15.5898C46.5527 13.9082 45.4219 12.7246 43.7812 12.7246C42.0352 12.7246 40.9219 13.9902 40.9219 15.9473C40.9219 17.9395 42.0117 19.1172 43.8691 19.1172ZM42.2051 15.3496C42.2695 14.3887 42.9023 13.7441 43.7754 13.7441C44.6543 13.7441 45.2578 14.3828 45.2871 15.3496H42.2051ZM50.3438 19.0938C50.6836 19.0938 50.877 18.9297 51 18.5488L51.6387 16.7324H54.873L55.5176 18.5547C55.6348 18.9297 55.8281 19.0938 56.1797 19.0938C56.5605 19.0938 56.8359 18.8418 56.8359 18.4961C56.8359 18.3848 56.8125 18.2734 56.7539 18.1094L54.1758 11.1309C54 10.6621 53.7188 10.4512 53.2617 10.4512C52.7988 10.4512 52.5117 10.668 52.3418 11.1367L49.7695 18.1094C49.7109 18.2676 49.6875 18.3965 49.6875 18.4961C49.6875 18.8535 49.9512 19.0938 50.3438 19.0938ZM51.9727 15.6602L53.2324 11.9512H53.2676L54.5391 15.6602H51.9727ZM58.7637 19.1113C59.1445 19.1113 59.3965 18.8711 59.3965 18.4492V13.8379H60.2109C60.5098 13.8379 60.7148 13.6621 60.7148 13.3457C60.7148 13.041 60.5098 12.8477 60.2109 12.8477H59.3789V12.291C59.3789 11.7285 59.6016 11.4766 60.1348 11.4707C60.2637 11.4707 60.3691 11.4531 60.457 11.4297C60.6621 11.3711 60.7617 11.248 60.7617 11.043C60.7617 10.7031 60.4395 10.4863 59.7656 10.4863C58.7051 10.4922 58.125 11.0488 58.125 12.2441V12.8477H57.6855C57.3867 12.8477 57.1816 13.041 57.1816 13.3457C57.1816 13.6621 57.3867 13.8379 57.6855 13.8379H58.125V18.4492C58.125 18.8711 58.377 19.1113 58.7637 19.1113ZM61.9922 17.5234C61.9922 18.543 62.5195 19.0527 63.5566 19.0527H63.6211C64.2422 19.0527 64.5352 18.8594 64.5352 18.4785C64.5352 18.1797 64.3535 18.0332 63.9902 17.998L63.8906 17.9922C63.4336 17.957 63.2637 17.7344 63.2637 17.2422V13.8379H63.9844C64.3125 13.8379 64.5117 13.6504 64.5117 13.3398C64.5117 13.0293 64.3125 12.8359 63.9844 12.8359H63.2637V11.9219C63.2637 11.5176 63.0117 11.248 62.6309 11.248C62.2441 11.248 61.9922 11.5176 61.9922 11.9219V12.8359H61.5469C61.2188 12.8359 61.0195 13.0234 61.0195 13.3398C61.0195 13.6504 61.2188 13.8379 61.5469 13.8379H61.9922V17.5234ZM67.998 19.1172C69.1465 19.1172 70.043 18.6543 70.4473 17.8457C70.5 17.7227 70.5352 17.6055 70.5352 17.5059C70.5352 17.1895 70.3125 16.9902 70.0078 16.9902C69.8262 16.9902 69.6973 17.0547 69.5625 17.2129C69.0938 17.8516 68.6602 18.0918 67.9688 18.0918C66.9609 18.0918 66.3281 17.3887 66.3281 16.2637V16.2344H70.0547C70.4473 16.2344 70.6816 16 70.6816 15.5898C70.6816 13.9082 69.5508 12.7246 67.9102 12.7246C66.1641 12.7246 65.0508 13.9902 65.0508 15.9473C65.0508 17.9395 66.1406 19.1172 67.998 19.1172ZM66.334 15.3496C66.3984 14.3887 67.0312 13.7441 67.9043 13.7441C68.7832 13.7441 69.3867 14.3828 69.416 15.3496H66.334ZM72.2988 19.1113C72.6738 19.1113 72.9316 18.8535 72.9316 18.4434V15.2969C72.9316 14.5293 73.2832 13.9492 74.1504 13.9434C74.4141 13.9434 74.6016 13.8906 74.7305 13.7793C74.8535 13.6797 74.918 13.5332 74.918 13.334C74.918 13.1348 74.8652 12.9824 74.748 12.8887C74.6426 12.7891 74.4727 12.7363 74.25 12.7363C73.6348 12.7363 73.0664 13.1992 72.8965 13.8906H72.8672V13.3633C72.8672 12.9766 72.6211 12.7246 72.2695 12.7246C71.9121 12.7246 71.666 12.9766 71.666 13.3633V18.4434C71.666 18.8535 71.918 19.1113 72.2988 19.1113ZM78.8496 19H83.0449C83.4082 19 83.6543 18.7773 83.6543 18.4316C83.6543 18.0859 83.4082 17.8633 83.0449 17.8633H79.5059V15.2383H82.8516C83.2031 15.2383 83.4375 15.0215 83.4375 14.6934C83.4375 14.3594 83.1973 14.1484 82.8516 14.1484H79.5059V11.6816H83.0449C83.4082 11.6816 83.6543 11.459 83.6543 11.1133C83.6543 10.7676 83.4082 10.5449 83.0449 10.5449H78.8496C78.4395 10.5449 78.1934 10.8027 78.1934 11.2246V18.3203C78.1934 18.7422 78.4395 19 78.8496 19ZM85.7637 19.1113C86.1445 19.1113 86.3965 18.8711 86.3965 18.4492V13.8379H87.2109C87.5098 13.8379 87.7148 13.6621 87.7148 13.3457C87.7148 13.041 87.5098 12.8477 87.2109 12.8477H86.3789V12.291C86.3789 11.7285 86.6016 11.4766 87.1348 11.4707C87.2637 11.4707 87.3691 11.4531 87.457 11.4297C87.6621 11.3711 87.7617 11.248 87.7617 11.043C87.7617 10.7031 87.4395 10.4863 86.7656 10.4863C85.7051 10.4922 85.125 11.0488 85.125 12.2441V12.8477H84.6855C84.3867 12.8477 84.1816 13.041 84.1816 13.3457C84.1816 13.6621 84.3867 13.8379 84.6855 13.8379H85.125V18.4492C85.125 18.8711 85.377 19.1113 85.7637 19.1113ZM89.6309 19.1113C90.0117 19.1113 90.2637 18.8711 90.2637 18.4492V13.8379H91.0781C91.377 13.8379 91.582 13.6621 91.582 13.3457C91.582 13.041 91.377 12.8477 91.0781 12.8477H90.2461V12.291C90.2461 11.7285 90.4688 11.4766 91.002 11.4707C91.1309 11.4707 91.2363 11.4531 91.3242 11.4297C91.5293 11.3711 91.6289 11.248 91.6289 11.043C91.6289 10.7031 91.3066 10.4863 90.6328 10.4863C89.5723 10.4922 88.9922 11.0488 88.9922 12.2441V12.8477H88.5527C88.2539 12.8477 88.0488 13.041 88.0488 13.3457C88.0488 13.6621 88.2539 13.8379 88.5527 13.8379H88.9922V18.4492C88.9922 18.8711 89.2441 19.1113 89.6309 19.1113ZM94.9043 19.1172C96.0527 19.1172 96.9492 18.6543 97.3535 17.8457C97.4062 17.7227 97.4414 17.6055 97.4414 17.5059C97.4414 17.1895 97.2188 16.9902 96.9141 16.9902C96.7324 16.9902 96.6035 17.0547 96.4688 17.2129C96 17.8516 95.5664 18.0918 94.875 18.0918C93.8672 18.0918 93.2344 17.3887 93.2344 16.2637V16.2344H96.9609C97.3535 16.2344 97.5879 16 97.5879 15.5898C97.5879 13.9082 96.457 12.7246 94.8164 12.7246C93.0703 12.7246 91.957 13.9902 91.957 15.9473C91.957 17.9395 93.0469 19.1172 94.9043 19.1172ZM93.2402 15.3496C93.3047 14.3887 93.9375 13.7441 94.8105 13.7441C95.6895 13.7441 96.293 14.3828 96.3223 15.3496H93.2402ZM101.209 19.1172C102.352 19.1172 103.354 18.5137 103.676 17.6641C103.723 17.541 103.746 17.4355 103.746 17.3359C103.746 17.0195 103.518 16.8086 103.207 16.8086C102.932 16.8086 102.797 16.9141 102.621 17.2188C102.322 17.752 101.906 18.0566 101.221 18.0566C100.242 18.0566 99.5859 17.2598 99.5859 15.918C99.5859 14.6055 100.23 13.7793 101.221 13.7793C101.871 13.7793 102.305 14.0605 102.621 14.6465C102.773 14.9277 102.926 15.0332 103.195 15.0332C103.506 15.0332 103.734 14.834 103.734 14.5117C103.734 14.4238 103.711 14.3184 103.676 14.2188C103.406 13.3574 102.387 12.7246 101.197 12.7246C99.4395 12.7246 98.2969 13.9785 98.2969 15.9297C98.2969 17.8926 99.4453 19.1172 101.209 19.1172ZM105.141 17.5234C105.141 18.543 105.668 19.0527 106.705 19.0527H106.77C107.391 19.0527 107.684 18.8594 107.684 18.4785C107.684 18.1797 107.502 18.0332 107.139 17.998L107.039 17.9922C106.582 17.957 106.412 17.7344 106.412 17.2422V13.8379H107.133C107.461 13.8379 107.66 13.6504 107.66 13.3398C107.66 13.0293 107.461 12.8359 107.133 12.8359H106.412V11.9219C106.412 11.5176 106.16 11.248 105.779 11.248C105.393 11.248 105.141 11.5176 105.141 11.9219V12.8359H104.695C104.367 12.8359 104.168 13.0234 104.168 13.3398C104.168 13.6504 104.367 13.8379 104.695 13.8379H105.141V17.5234Z" fill="white"/>
</svg>
