<svg width="107" height="29" viewBox="0 0 107 29" fill="none" xmlns="http://www.w3.org/2000/svg">
<rect width="107" height="29" rx="8" fill="black"/>
<path d="M13.3672 19.0938C13.707 19.0938 13.9004 18.9297 14.0234 18.5488L14.6621 16.7324H17.8965L18.541 18.5547C18.6582 18.9297 18.8516 19.0938 19.2031 19.0938C19.584 19.0938 19.8594 18.8418 19.8594 18.4961C19.8594 18.3848 19.8359 18.2734 19.7773 18.1094L17.1992 11.1309C17.0234 10.6621 16.7422 10.4512 16.2852 10.4512C15.8223 10.4512 15.5352 10.668 15.3652 11.1367L12.793 18.1094C12.7344 18.2676 12.7109 18.3965 12.7109 18.4961C12.7109 18.8535 12.9746 19.0938 13.3672 19.0938ZM14.9961 15.6602L16.2559 11.9512H16.291L17.5625 15.6602H14.9961ZM22.9766 19.1055C23.9375 19.1055 24.5879 18.625 24.9043 17.9043H24.9219V18.4785C24.9219 18.877 25.209 19.1113 25.5664 19.1113C25.9355 19.1113 26.1934 18.877 26.1934 18.4785V11.1016C26.1934 10.6855 25.9297 10.4336 25.5605 10.4336C25.1855 10.4336 24.9219 10.6855 24.9219 11.1016V13.8613H24.8984C24.5527 13.1816 23.8496 12.7363 22.9648 12.7363C21.418 12.7363 20.3867 13.9727 20.3867 15.918C20.3867 17.8633 21.418 19.1055 22.9766 19.1055ZM23.3105 18.0332C22.3086 18.0332 21.6816 17.2188 21.6816 15.918C21.6816 14.623 22.3086 13.8027 23.3105 13.8027C24.2832 13.8027 24.9336 14.6406 24.9336 15.918C24.9336 17.207 24.2832 18.0332 23.3105 18.0332ZM30.1426 19.1172C31.9062 19.1172 33.0664 17.9043 33.0664 15.918C33.0664 13.9375 31.9004 12.7246 30.1426 12.7246C28.3848 12.7246 27.2188 13.9375 27.2188 15.918C27.2188 17.9043 28.3789 19.1172 30.1426 19.1172ZM30.1426 18.0742C29.1523 18.0742 28.5078 17.2891 28.5078 15.918C28.5078 14.5527 29.1523 13.7676 30.1426 13.7676C31.1328 13.7676 31.7773 14.5527 31.7773 15.918C31.7773 17.2891 31.1387 18.0742 30.1426 18.0742ZM34.6953 19.1113C35.0645 19.1113 35.3223 18.877 35.3223 18.4785V17.9512H35.3457C35.7266 18.666 36.4297 19.1055 37.3262 19.1055C38.8965 19.1055 39.9043 17.875 39.9043 15.918C39.9043 13.9668 38.8906 12.7363 37.3379 12.7363C36.4648 12.7363 35.7559 13.1699 35.3867 13.8848H35.3574V11.1016C35.3574 10.6855 35.0938 10.4336 34.7246 10.4336C34.3555 10.4336 34.0918 10.6855 34.0918 11.1016V18.4785C34.0918 18.877 34.332 19.1113 34.6953 19.1113ZM36.9863 18.0332C36.0312 18.0332 35.3516 17.2012 35.3516 15.918C35.3516 14.6465 36.0312 13.8027 36.9863 13.8027C37.9824 13.8027 38.6035 14.623 38.6035 15.918C38.6035 17.2246 37.9883 18.0332 36.9863 18.0332ZM43.5605 19.1172C44.709 19.1172 45.6055 18.6543 46.0098 17.8457C46.0625 17.7227 46.0977 17.6055 46.0977 17.5059C46.0977 17.1895 45.875 16.9902 45.5703 16.9902C45.3887 16.9902 45.2598 17.0547 45.125 17.2129C44.6562 17.8516 44.2227 18.0918 43.5312 18.0918C42.5234 18.0918 41.8906 17.3887 41.8906 16.2637V16.2344H45.6172C46.0098 16.2344 46.2441 16 46.2441 15.5898C46.2441 13.9082 45.1133 12.7246 43.4727 12.7246C41.7266 12.7246 40.6133 13.9902 40.6133 15.9473C40.6133 17.9395 41.7031 19.1172 43.5605 19.1172ZM41.8965 15.3496C41.9609 14.3887 42.5938 13.7441 43.4668 13.7441C44.3457 13.7441 44.9492 14.3828 44.9785 15.3496H41.8965ZM50.4746 19.0938C50.8789 19.0938 51.1309 18.8359 51.1309 18.4141V16.1113H52.9473C54.6055 16.1113 55.7715 14.9746 55.7715 13.3223C55.7715 11.6758 54.6289 10.5449 52.9883 10.5449H50.4746C50.0645 10.5449 49.8184 10.8027 49.8184 11.2246V18.4141C49.8184 18.8359 50.0645 19.0938 50.4746 19.0938ZM51.1309 15.0098V11.6523H52.6426C53.7793 11.6523 54.4297 12.2617 54.4297 13.3281C54.4297 14.3945 53.7793 15.0098 52.6367 15.0098H51.1309ZM57.4004 19.1113C57.7754 19.1113 58.0332 18.8535 58.0332 18.4434V15.2969C58.0332 14.5293 58.3848 13.9492 59.252 13.9434C59.5156 13.9434 59.7031 13.8906 59.832 13.7793C59.9551 13.6797 60.0195 13.5332 60.0195 13.334C60.0195 13.1348 59.9668 12.9824 59.8496 12.8887C59.7441 12.7891 59.5742 12.7363 59.3516 12.7363C58.7363 12.7363 58.168 13.1992 57.998 13.8906H57.9688V13.3633C57.9688 12.9766 57.7227 12.7246 57.3711 12.7246C57.0137 12.7246 56.7676 12.9766 56.7676 13.3633V18.4434C56.7676 18.8535 57.0195 19.1113 57.4004 19.1113ZM63.1074 19.1172C64.2559 19.1172 65.1523 18.6543 65.5566 17.8457C65.6094 17.7227 65.6445 17.6055 65.6445 17.5059C65.6445 17.1895 65.4219 16.9902 65.1172 16.9902C64.9355 16.9902 64.8066 17.0547 64.6719 17.2129C64.2031 17.8516 63.7695 18.0918 63.0781 18.0918C62.0703 18.0918 61.4375 17.3887 61.4375 16.2637V16.2344H65.1641C65.5566 16.2344 65.791 16 65.791 15.5898C65.791 13.9082 64.6602 12.7246 63.0195 12.7246C61.2734 12.7246 60.1602 13.9902 60.1602 15.9473C60.1602 17.9395 61.25 19.1172 63.1074 19.1172ZM61.4434 15.3496C61.5078 14.3887 62.1406 13.7441 63.0137 13.7441C63.8926 13.7441 64.4961 14.3828 64.5254 15.3496H61.4434ZM67.4082 19.1113C67.7891 19.1113 68.041 18.8477 68.041 18.4434V15.1914C68.041 14.4004 68.5742 13.8145 69.3242 13.8145C70.0391 13.8145 70.4902 14.2656 70.4902 14.9746V18.4434C70.4902 18.8477 70.7305 19.1113 71.1113 19.1113C71.4922 19.1113 71.7324 18.8477 71.7324 18.4434V15.1504C71.7324 14.3711 72.2539 13.8145 73.0039 13.8145C73.7539 13.8145 74.1816 14.2715 74.1816 15.0684V18.4434C74.1816 18.8477 74.4336 19.1113 74.8145 19.1113C75.1953 19.1113 75.4531 18.8477 75.4531 18.4434V14.7637C75.4531 13.5391 74.6562 12.7305 73.4375 12.7305C72.5586 12.7305 71.832 13.1875 71.5156 13.9375H71.4863C71.2402 13.1699 70.6191 12.7305 69.7637 12.7305C68.9316 12.7305 68.2871 13.1875 68.0117 13.873H67.9824V13.3691C67.9824 12.9648 67.7305 12.7246 67.3789 12.7246C67.0215 12.7246 66.7754 12.9707 66.7754 13.3691V18.4434C66.7754 18.8477 67.0273 19.1113 67.4082 19.1113ZM77.3516 11.9043C77.7617 11.9043 78.0898 11.5762 78.0898 11.1777C78.0898 10.7734 77.7617 10.457 77.3516 10.457C76.9473 10.457 76.6191 10.7734 76.6191 11.1777C76.6191 11.5762 76.9473 11.9043 77.3516 11.9043ZM77.3516 19.1113C77.7324 19.1113 77.9844 18.8477 77.9844 18.4434V13.3984C77.9844 12.9883 77.7324 12.7246 77.3516 12.7246C76.9707 12.7246 76.7188 12.9883 76.7188 13.3984V18.4434C76.7188 18.8477 76.9707 19.1113 77.3516 19.1113ZM81.9512 19.1172C83.0996 19.1172 83.9961 18.6543 84.4004 17.8457C84.4531 17.7227 84.4883 17.6055 84.4883 17.5059C84.4883 17.1895 84.2656 16.9902 83.9609 16.9902C83.7793 16.9902 83.6504 17.0547 83.5156 17.2129C83.0469 17.8516 82.6133 18.0918 81.9219 18.0918C80.9141 18.0918 80.2812 17.3887 80.2812 16.2637V16.2344H84.0078C84.4004 16.2344 84.6348 16 84.6348 15.5898C84.6348 13.9082 83.5039 12.7246 81.8633 12.7246C80.1172 12.7246 79.0039 13.9902 79.0039 15.9473C79.0039 17.9395 80.0938 19.1172 81.9512 19.1172ZM80.2871 15.3496C80.3516 14.3887 80.9844 13.7441 81.8574 13.7441C82.7363 13.7441 83.3398 14.3828 83.3691 15.3496H80.2871ZM86.252 19.1113C86.627 19.1113 86.8848 18.8535 86.8848 18.4434V15.2969C86.8848 14.5293 87.2363 13.9492 88.1035 13.9434C88.3672 13.9434 88.5547 13.8906 88.6836 13.7793C88.8066 13.6797 88.8711 13.5332 88.8711 13.334C88.8711 13.1348 88.8184 12.9824 88.7012 12.8887C88.5957 12.7891 88.4258 12.7363 88.2031 12.7363C87.5879 12.7363 87.0195 13.1992 86.8496 13.8906H86.8203V13.3633C86.8203 12.9766 86.5742 12.7246 86.2227 12.7246C85.8652 12.7246 85.6191 12.9766 85.6191 13.3633V18.4434C85.6191 18.8535 85.8711 19.1113 86.252 19.1113ZM91.959 19.1172C93.1074 19.1172 94.0039 18.6543 94.4082 17.8457C94.4609 17.7227 94.4961 17.6055 94.4961 17.5059C94.4961 17.1895 94.2734 16.9902 93.9688 16.9902C93.7871 16.9902 93.6582 17.0547 93.5234 17.2129C93.0547 17.8516 92.6211 18.0918 91.9297 18.0918C90.9219 18.0918 90.2891 17.3887 90.2891 16.2637V16.2344H94.0156C94.4082 16.2344 94.6426 16 94.6426 15.5898C94.6426 13.9082 93.5117 12.7246 91.8711 12.7246C90.125 12.7246 89.0117 13.9902 89.0117 15.9473C89.0117 17.9395 90.1016 19.1172 91.959 19.1172ZM90.2949 15.3496C90.3594 14.3887 90.9922 13.7441 91.8652 13.7441C92.7441 13.7441 93.3477 14.3828 93.377 15.3496H90.2949Z" fill="white"/>
</svg>
