<svg width="75" height="29" viewBox="0 0 75 29" fill="none" xmlns="http://www.w3.org/2000/svg">
<rect width="75" height="29" rx="8" fill="black"/>
<path d="M13.0898 19.0938C13.4297 19.0938 13.623 18.9297 13.7461 18.5488L14.3848 16.7324H17.6191L18.2637 18.5547C18.3809 18.9297 18.5742 19.0938 18.9258 19.0938C19.3066 19.0938 19.582 18.8418 19.582 18.4961C19.582 18.3848 19.5586 18.2734 19.5 18.1094L16.9219 11.1309C16.7461 10.6621 16.4648 10.4512 16.0078 10.4512C15.5449 10.4512 15.2578 10.668 15.0879 11.1367L12.5156 18.1094C12.457 18.2676 12.4336 18.3965 12.4336 18.4961C12.4336 18.8535 12.6973 19.0938 13.0898 19.0938ZM14.7188 15.6602L15.9785 11.9512H16.0137L17.2852 15.6602H14.7188ZM22.6992 19.1055C23.6602 19.1055 24.3105 18.625 24.627 17.9043H24.6445V18.4785C24.6445 18.877 24.9316 19.1113 25.2891 19.1113C25.6582 19.1113 25.916 18.877 25.916 18.4785V11.1016C25.916 10.6855 25.6523 10.4336 25.2832 10.4336C24.9082 10.4336 24.6445 10.6855 24.6445 11.1016V13.8613H24.6211C24.2754 13.1816 23.5723 12.7363 22.6875 12.7363C21.1406 12.7363 20.1094 13.9727 20.1094 15.918C20.1094 17.8633 21.1406 19.1055 22.6992 19.1055ZM23.0332 18.0332C22.0312 18.0332 21.4043 17.2188 21.4043 15.918C21.4043 14.623 22.0312 13.8027 23.0332 13.8027C24.0059 13.8027 24.6562 14.6406 24.6562 15.918C24.6562 17.207 24.0059 18.0332 23.0332 18.0332ZM29.8652 19.1172C31.6289 19.1172 32.7891 17.9043 32.7891 15.918C32.7891 13.9375 31.623 12.7246 29.8652 12.7246C28.1074 12.7246 26.9414 13.9375 26.9414 15.918C26.9414 17.9043 28.1016 19.1172 29.8652 19.1172ZM29.8652 18.0742C28.875 18.0742 28.2305 17.2891 28.2305 15.918C28.2305 14.5527 28.875 13.7676 29.8652 13.7676C30.8555 13.7676 31.5 14.5527 31.5 15.918C31.5 17.2891 30.8613 18.0742 29.8652 18.0742ZM34.418 19.1113C34.7871 19.1113 35.0449 18.877 35.0449 18.4785V17.9512H35.0684C35.4492 18.666 36.1523 19.1055 37.0488 19.1055C38.6191 19.1055 39.627 17.875 39.627 15.918C39.627 13.9668 38.6133 12.7363 37.0605 12.7363C36.1875 12.7363 35.4785 13.1699 35.1094 13.8848H35.0801V11.1016C35.0801 10.6855 34.8164 10.4336 34.4473 10.4336C34.0781 10.4336 33.8145 10.6855 33.8145 11.1016V18.4785C33.8145 18.877 34.0547 19.1113 34.418 19.1113ZM36.709 18.0332C35.7539 18.0332 35.0742 17.2012 35.0742 15.918C35.0742 14.6465 35.7539 13.8027 36.709 13.8027C37.7051 13.8027 38.3262 14.623 38.3262 15.918C38.3262 17.2246 37.7109 18.0332 36.709 18.0332ZM43.2832 19.1172C44.4316 19.1172 45.3281 18.6543 45.7324 17.8457C45.7852 17.7227 45.8203 17.6055 45.8203 17.5059C45.8203 17.1895 45.5977 16.9902 45.293 16.9902C45.1113 16.9902 44.9824 17.0547 44.8477 17.2129C44.3789 17.8516 43.9453 18.0918 43.2539 18.0918C42.2461 18.0918 41.6133 17.3887 41.6133 16.2637V16.2344H45.3398C45.7324 16.2344 45.9668 16 45.9668 15.5898C45.9668 13.9082 44.8359 12.7246 43.1953 12.7246C41.4492 12.7246 40.3359 13.9902 40.3359 15.9473C40.3359 17.9395 41.4258 19.1172 43.2832 19.1172ZM41.6191 15.3496C41.6836 14.3887 42.3164 13.7441 43.1895 13.7441C44.0684 13.7441 44.6719 14.3828 44.7012 15.3496H41.6191ZM49.9395 19.0938C50.1855 19.0938 50.3145 19.0117 50.4961 18.7539L52.6055 15.7773H52.6465L54.7559 18.7598C54.9258 19 55.0781 19.0938 55.3242 19.0938C55.6875 19.0938 55.9746 18.8359 55.9746 18.4961C55.9746 18.3379 55.9219 18.1914 55.8164 18.0508L53.4727 14.8047V14.7695L55.8926 11.459C56.0039 11.3008 56.0508 11.166 56.0508 11.0137C56.0508 10.7031 55.7578 10.4512 55.4062 10.4512C55.1602 10.4512 55.0312 10.5449 54.8613 10.791L52.7461 13.8145H52.6992L50.6309 10.8262C50.4434 10.5508 50.291 10.4512 50.0391 10.4512C49.6582 10.4512 49.3652 10.7148 49.3652 11.0664C49.3652 11.2246 49.4062 11.3594 49.5352 11.5293L51.8262 14.7227V14.7637L49.4707 18.0801C49.3594 18.2383 49.3125 18.373 49.3125 18.5254C49.3125 18.8418 49.5879 19.0938 49.9395 19.0938ZM59.1094 19.1055C60.0703 19.1055 60.7207 18.625 61.0371 17.9043H61.0547V18.4785C61.0547 18.877 61.3418 19.1113 61.6992 19.1113C62.0684 19.1113 62.3262 18.877 62.3262 18.4785V11.1016C62.3262 10.6855 62.0625 10.4336 61.6934 10.4336C61.3184 10.4336 61.0547 10.6855 61.0547 11.1016V13.8613H61.0312C60.6855 13.1816 59.9824 12.7363 59.0977 12.7363C57.5508 12.7363 56.5195 13.9727 56.5195 15.918C56.5195 17.8633 57.5508 19.1055 59.1094 19.1055ZM59.4434 18.0332C58.4414 18.0332 57.8145 17.2188 57.8145 15.918C57.8145 14.623 58.4414 13.8027 59.4434 13.8027C60.416 13.8027 61.0664 14.6406 61.0664 15.918C61.0664 17.207 60.416 18.0332 59.4434 18.0332Z" fill="white"/>
</svg>
