<svg width="73" height="29" viewBox="0 0 73 29" fill="none" xmlns="http://www.w3.org/2000/svg">
<rect width="73" height="29" rx="8" fill="black"/>
<path d="M13.5332 19.0938C13.9375 19.0938 14.1895 18.8359 14.1895 18.4141V15.4609H17.3242C17.6758 15.4609 17.916 15.2441 17.916 14.9043C17.916 14.5703 17.6758 14.3535 17.3242 14.3535H14.1895V11.6816H17.6348C17.998 11.6816 18.25 11.459 18.25 11.1133C18.25 10.7676 18.0039 10.5449 17.6348 10.5449H13.5332C13.123 10.5449 12.877 10.8027 12.877 11.2246V18.4141C12.877 18.8359 13.123 19.0938 13.5332 19.0938ZM19.9551 19H24.0332C24.3965 19 24.6426 18.7773 24.6426 18.4316C24.6426 18.0859 24.3965 17.8633 24.0332 17.8633H20.6113V11.1309C20.6113 10.709 20.3594 10.4512 19.9551 10.4512C19.5449 10.4512 19.2988 10.709 19.2988 11.1309V18.3203C19.2988 18.7422 19.5449 19 19.9551 19ZM30.9941 19.1406C32.9688 19.1406 34.2227 18.1387 34.2227 16.5449C34.2227 15.3145 33.4961 14.6055 31.7207 14.2305L30.8008 14.0371C29.7051 13.8027 29.2656 13.3926 29.2656 12.7773C29.2656 12.0039 29.998 11.5234 30.9883 11.5234C31.832 11.5234 32.4766 11.8574 32.7637 12.6367C32.8984 12.9414 33.0918 13.0879 33.4082 13.0879C33.748 13.0879 33.9883 12.8652 33.9883 12.5254C33.9883 12.4023 33.9707 12.3027 33.9414 12.2207C33.6133 11.0898 32.4648 10.4043 31.0059 10.4043C29.207 10.4043 27.9355 11.4004 27.9355 12.8477C27.9355 14.0664 28.7031 14.8516 30.3906 15.209L31.3164 15.4023C32.4473 15.6484 32.8926 16.0586 32.8926 16.7148C32.8926 17.4707 32.125 18.0215 31.0527 18.0215C30.0742 18.0215 29.3066 17.6523 29.043 16.8613C28.9141 16.5449 28.7207 16.4102 28.4219 16.4102C28.0645 16.4102 27.8301 16.6562 27.8301 17.0371C27.8301 17.1777 27.8594 17.3184 27.9004 17.4473C28.2285 18.4316 29.3535 19.1406 30.9941 19.1406ZM35.6172 17.5234C35.6172 18.543 36.1445 19.0527 37.1816 19.0527H37.2461C37.8672 19.0527 38.1602 18.8594 38.1602 18.4785C38.1602 18.1797 37.9785 18.0332 37.6152 17.998L37.5156 17.9922C37.0586 17.957 36.8887 17.7344 36.8887 17.2422V13.8379H37.6094C37.9375 13.8379 38.1367 13.6504 38.1367 13.3398C38.1367 13.0293 37.9375 12.8359 37.6094 12.8359H36.8887V11.9219C36.8887 11.5176 36.6367 11.248 36.2559 11.248C35.8691 11.248 35.6172 11.5176 35.6172 11.9219V12.8359H35.1719C34.8438 12.8359 34.6445 13.0234 34.6445 13.3398C34.6445 13.6504 34.8438 13.8379 35.1719 13.8379H35.6172V17.5234ZM41.2363 19.1113C42.1797 19.1113 42.8066 18.6953 43.1465 17.957H43.1758V18.4727C43.1758 18.8594 43.4219 19.1113 43.7852 19.1113C44.1484 19.1113 44.3887 18.8594 44.3887 18.4668V13.3984C44.3887 12.9766 44.1309 12.7246 43.7559 12.7246C43.3867 12.7246 43.123 12.9766 43.123 13.3984V16.4277C43.123 17.3887 42.5723 18.0215 41.6582 18.0215C40.7852 18.0215 40.3398 17.5176 40.3398 16.5801V13.3984C40.3398 12.9766 40.0762 12.7246 39.707 12.7246C39.332 12.7246 39.0742 12.9766 39.0742 13.3984V16.8262C39.0742 18.2383 39.8945 19.1113 41.2363 19.1113ZM47.957 19.1055C48.918 19.1055 49.5684 18.625 49.8848 17.9043H49.9023V18.4785C49.9023 18.877 50.1895 19.1113 50.5469 19.1113C50.916 19.1113 51.1738 18.877 51.1738 18.4785V11.1016C51.1738 10.6855 50.9102 10.4336 50.541 10.4336C50.166 10.4336 49.9023 10.6855 49.9023 11.1016V13.8613H49.8789C49.5332 13.1816 48.8301 12.7363 47.9453 12.7363C46.3984 12.7363 45.3672 13.9727 45.3672 15.918C45.3672 17.8633 46.3984 19.1055 47.957 19.1055ZM48.291 18.0332C47.2891 18.0332 46.6621 17.2188 46.6621 15.918C46.6621 14.623 47.2891 13.8027 48.291 13.8027C49.2637 13.8027 49.9141 14.6406 49.9141 15.918C49.9141 17.207 49.2637 18.0332 48.291 18.0332ZM53.1484 11.9043C53.5586 11.9043 53.8867 11.5762 53.8867 11.1777C53.8867 10.7734 53.5586 10.457 53.1484 10.457C52.7441 10.457 52.416 10.7734 52.416 11.1777C52.416 11.5762 52.7441 11.9043 53.1484 11.9043ZM53.1484 19.1113C53.5293 19.1113 53.7812 18.8477 53.7812 18.4434V13.3984C53.7812 12.9883 53.5293 12.7246 53.1484 12.7246C52.7676 12.7246 52.5156 12.9883 52.5156 13.3984V18.4434C52.5156 18.8477 52.7676 19.1113 53.1484 19.1113ZM57.7246 19.1172C59.4883 19.1172 60.6484 17.9043 60.6484 15.918C60.6484 13.9375 59.4824 12.7246 57.7246 12.7246C55.9668 12.7246 54.8008 13.9375 54.8008 15.918C54.8008 17.9043 55.9609 19.1172 57.7246 19.1172ZM57.7246 18.0742C56.7344 18.0742 56.0898 17.2891 56.0898 15.918C56.0898 14.5527 56.7344 13.7676 57.7246 13.7676C58.7148 13.7676 59.3594 14.5527 59.3594 15.918C59.3594 17.2891 58.7207 18.0742 57.7246 18.0742Z" fill="white"/>
</svg>
