<svg width="74" height="29" viewBox="0 0 74 29" fill="none" xmlns="http://www.w3.org/2000/svg">
<rect width="74" height="29" rx="8" fill="black"/>
<path d="M13.6426 19.0938C14.0469 19.0938 14.2988 18.8359 14.2988 18.4141V16.1113H16.1152C17.7734 16.1113 18.9395 14.9746 18.9395 13.3223C18.9395 11.6758 17.7969 10.5449 16.1562 10.5449H13.6426C13.2324 10.5449 12.9863 10.8027 12.9863 11.2246V18.4141C12.9863 18.8359 13.2324 19.0938 13.6426 19.0938ZM14.2988 15.0098V11.6523H15.8105C16.9473 11.6523 17.5977 12.2617 17.5977 13.3281C17.5977 14.3945 16.9473 15.0098 15.8047 15.0098H14.2988ZM20.5684 19.1113C20.9434 19.1113 21.2012 18.8535 21.2012 18.4434V15.2969C21.2012 14.5293 21.5527 13.9492 22.4199 13.9434C22.6836 13.9434 22.8711 13.8906 23 13.7793C23.123 13.6797 23.1875 13.5332 23.1875 13.334C23.1875 13.1348 23.1348 12.9824 23.0176 12.8887C22.9121 12.7891 22.7422 12.7363 22.5195 12.7363C21.9043 12.7363 21.3359 13.1992 21.166 13.8906H21.1367V13.3633C21.1367 12.9766 20.8906 12.7246 20.5391 12.7246C20.1816 12.7246 19.9355 12.9766 19.9355 13.3633V18.4434C19.9355 18.8535 20.1875 19.1113 20.5684 19.1113ZM26.252 19.1172C28.0156 19.1172 29.1758 17.9043 29.1758 15.918C29.1758 13.9375 28.0098 12.7246 26.252 12.7246C24.4941 12.7246 23.3281 13.9375 23.3281 15.918C23.3281 17.9043 24.4883 19.1172 26.252 19.1172ZM26.252 18.0742C25.2617 18.0742 24.6172 17.2891 24.6172 15.918C24.6172 14.5527 25.2617 13.7676 26.252 13.7676C27.2422 13.7676 27.8867 14.5527 27.8867 15.918C27.8867 17.2891 27.248 18.0742 26.252 18.0742ZM32.791 19.1172C33.9336 19.1172 34.9355 18.5137 35.2578 17.6641C35.3047 17.541 35.3281 17.4355 35.3281 17.3359C35.3281 17.0195 35.0996 16.8086 34.7891 16.8086C34.5137 16.8086 34.3789 16.9141 34.2031 17.2188C33.9043 17.752 33.4883 18.0566 32.8027 18.0566C31.8242 18.0566 31.168 17.2598 31.168 15.918C31.168 14.6055 31.8125 13.7793 32.8027 13.7793C33.4531 13.7793 33.8867 14.0605 34.2031 14.6465C34.3555 14.9277 34.5078 15.0332 34.7773 15.0332C35.0879 15.0332 35.3164 14.834 35.3164 14.5117C35.3164 14.4238 35.293 14.3184 35.2578 14.2188C34.9883 13.3574 33.9688 12.7246 32.7793 12.7246C31.0215 12.7246 29.8789 13.9785 29.8789 15.9297C29.8789 17.8926 31.0273 19.1172 32.791 19.1172ZM36.9863 19.1113C37.3613 19.1113 37.6191 18.8535 37.6191 18.4434V15.2969C37.6191 14.5293 37.9707 13.9492 38.8379 13.9434C39.1016 13.9434 39.2891 13.8906 39.418 13.7793C39.541 13.6797 39.6055 13.5332 39.6055 13.334C39.6055 13.1348 39.5527 12.9824 39.4355 12.8887C39.3301 12.7891 39.1602 12.7363 38.9375 12.7363C38.3223 12.7363 37.7539 13.1992 37.584 13.8906H37.5547V13.3633C37.5547 12.9766 37.3086 12.7246 36.957 12.7246C36.5996 12.7246 36.3535 12.9766 36.3535 13.3633V18.4434C36.3535 18.8535 36.6055 19.1113 36.9863 19.1113ZM42.6934 19.1172C43.8418 19.1172 44.7383 18.6543 45.1426 17.8457C45.1953 17.7227 45.2305 17.6055 45.2305 17.5059C45.2305 17.1895 45.0078 16.9902 44.7031 16.9902C44.5215 16.9902 44.3926 17.0547 44.2578 17.2129C43.7891 17.8516 43.3555 18.0918 42.6641 18.0918C41.6562 18.0918 41.0234 17.3887 41.0234 16.2637V16.2344H44.75C45.1426 16.2344 45.377 16 45.377 15.5898C45.377 13.9082 44.2461 12.7246 42.6055 12.7246C40.8594 12.7246 39.7461 13.9902 39.7461 15.9473C39.7461 17.9395 40.8359 19.1172 42.6934 19.1172ZM41.0293 15.3496C41.0938 14.3887 41.7266 13.7441 42.5996 13.7441C43.4785 13.7441 44.082 14.3828 44.1113 15.3496H41.0293ZM48.166 19.1055C48.9688 19.1055 49.7539 18.6719 50.1113 17.9863H50.1406V18.5078C50.1523 18.8828 50.3926 19.1113 50.7441 19.1113C51.1016 19.1113 51.3535 18.8711 51.3535 18.4727V14.752C51.3535 13.5156 50.3984 12.7246 48.9043 12.7246C47.7969 12.7246 46.8652 13.1699 46.543 13.8672C46.4668 14.0078 46.4316 14.1484 46.4316 14.2773C46.4316 14.5938 46.6602 14.8047 46.9766 14.8047C47.1992 14.8047 47.3633 14.7227 47.4922 14.5352C47.8438 13.9727 48.248 13.7559 48.8574 13.7559C49.6309 13.7559 50.0938 14.166 50.0938 14.8516V15.3262L48.4004 15.4258C46.9414 15.5078 46.1094 16.1699 46.1094 17.248C46.1094 18.3555 46.959 19.1055 48.166 19.1055ZM48.5117 18.1035C47.8379 18.1035 47.3867 17.752 47.3867 17.2129C47.3867 16.6855 47.8145 16.3516 48.5703 16.2988L50.0938 16.2051V16.6914C50.0938 17.4941 49.3965 18.1035 48.5117 18.1035ZM52.9531 17.5234C52.9531 18.543 53.4805 19.0527 54.5176 19.0527H54.582C55.2031 19.0527 55.4961 18.8594 55.4961 18.4785C55.4961 18.1797 55.3145 18.0332 54.9512 17.998L54.8516 17.9922C54.3945 17.957 54.2246 17.7344 54.2246 17.2422V13.8379H54.9453C55.2734 13.8379 55.4727 13.6504 55.4727 13.3398C55.4727 13.0293 55.2734 12.8359 54.9453 12.8359H54.2246V11.9219C54.2246 11.5176 53.9727 11.248 53.5918 11.248C53.2051 11.248 52.9531 11.5176 52.9531 11.9219V12.8359H52.5078C52.1797 12.8359 51.9805 13.0234 51.9805 13.3398C51.9805 13.6504 52.1797 13.8379 52.5078 13.8379H52.9531V17.5234ZM58.959 19.1172C60.1074 19.1172 61.0039 18.6543 61.4082 17.8457C61.4609 17.7227 61.4961 17.6055 61.4961 17.5059C61.4961 17.1895 61.2734 16.9902 60.9688 16.9902C60.7871 16.9902 60.6582 17.0547 60.5234 17.2129C60.0547 17.8516 59.6211 18.0918 58.9297 18.0918C57.9219 18.0918 57.2891 17.3887 57.2891 16.2637V16.2344H61.0156C61.4082 16.2344 61.6426 16 61.6426 15.5898C61.6426 13.9082 60.5117 12.7246 58.8711 12.7246C57.125 12.7246 56.0117 13.9902 56.0117 15.9473C56.0117 17.9395 57.1016 19.1172 58.959 19.1172ZM57.2949 15.3496C57.3594 14.3887 57.9922 13.7441 58.8652 13.7441C59.7441 13.7441 60.3477 14.3828 60.377 15.3496H57.2949Z" fill="white"/>
</svg>
