<svg width="57" height="29" viewBox="0 0 57 29" fill="none" xmlns="http://www.w3.org/2000/svg">
<rect width="57" height="29" rx="8" fill="black"/>
<path d="M14.0039 19H19.1602C19.5234 19 19.7754 18.7773 19.7754 18.4316C19.7754 18.0859 19.5293 17.8633 19.1602 17.8633H14.959V17.8223L19.3535 11.7402C19.5059 11.5234 19.5703 11.3945 19.5703 11.1953C19.5703 10.8027 19.3008 10.5449 18.8789 10.5449H13.9863C13.623 10.5449 13.377 10.7676 13.377 11.1133C13.377 11.459 13.623 11.6816 13.9863 11.6816H17.959V11.7227L13.541 17.8105C13.3887 18.0215 13.3301 18.1738 13.3301 18.3672C13.3301 18.748 13.5996 19 14.0039 19ZM23.4199 19.1172C24.5684 19.1172 25.4648 18.6543 25.8691 17.8457C25.9219 17.7227 25.957 17.6055 25.957 17.5059C25.957 17.1895 25.7344 16.9902 25.4297 16.9902C25.248 16.9902 25.1191 17.0547 24.9844 17.2129C24.5156 17.8516 24.082 18.0918 23.3906 18.0918C22.3828 18.0918 21.75 17.3887 21.75 16.2637V16.2344H25.4766C25.8691 16.2344 26.1035 16 26.1035 15.5898C26.1035 13.9082 24.9727 12.7246 23.332 12.7246C21.5859 12.7246 20.4727 13.9902 20.4727 15.9473C20.4727 17.9395 21.5625 19.1172 23.4199 19.1172ZM21.7559 15.3496C21.8203 14.3887 22.4531 13.7441 23.3262 13.7441C24.2051 13.7441 24.8086 14.3828 24.8379 15.3496H21.7559ZM27.7207 21.1855C28.0898 21.1855 28.3535 20.9277 28.3535 20.5117V17.9863H28.3828C28.7344 18.6719 29.4375 19.1055 30.3223 19.1055C31.8691 19.1055 32.8945 17.8691 32.8945 15.918C32.8945 13.9668 31.8633 12.7363 30.2988 12.7363C29.4082 12.7363 28.6992 13.1875 28.3359 13.8965H28.3125V13.375C28.3125 12.9707 28.0547 12.7246 27.6973 12.7246C27.3398 12.7246 27.0879 12.9707 27.0879 13.375V20.5117C27.0879 20.9277 27.3457 21.1855 27.7207 21.1855ZM29.9648 18.0332C28.9922 18.0332 28.3477 17.2012 28.3477 15.918C28.3477 14.6465 28.998 13.8027 29.9648 13.8027C30.9668 13.8027 31.5938 14.6289 31.5938 15.918C31.5938 17.2129 30.9668 18.0332 29.9648 18.0332ZM34.5527 19.1113C34.9219 19.1113 35.1855 18.8594 35.1855 18.4434V11.1016C35.1855 10.6855 34.9219 10.4336 34.5527 10.4336C34.1836 10.4336 33.9199 10.6855 33.9199 11.1016V18.4434C33.9199 18.8594 34.1836 19.1113 34.5527 19.1113ZM37.1602 11.9043C37.5703 11.9043 37.8984 11.5762 37.8984 11.1777C37.8984 10.7734 37.5703 10.457 37.1602 10.457C36.7559 10.457 36.4277 10.7734 36.4277 11.1777C36.4277 11.5762 36.7559 11.9043 37.1602 11.9043ZM37.1602 19.1113C37.541 19.1113 37.793 18.8477 37.793 18.4434V13.3984C37.793 12.9883 37.541 12.7246 37.1602 12.7246C36.7793 12.7246 36.5273 12.9883 36.5273 13.3984V18.4434C36.5273 18.8477 36.7793 19.1113 37.1602 19.1113ZM39.7207 19.1113C40.0898 19.1113 40.3535 18.8594 40.3535 18.4434V15.4082C40.3535 14.4531 40.9277 13.8203 41.8184 13.8203C42.6973 13.8203 43.1309 14.3301 43.1309 15.2559V18.4434C43.1309 18.8594 43.3945 19.1113 43.7637 19.1113C44.1387 19.1113 44.4023 18.8594 44.4023 18.4434V15.0098C44.4023 13.5977 43.623 12.7305 42.2637 12.7305C41.3145 12.7305 40.6699 13.1523 40.3359 13.8555H40.3066V13.3691C40.3066 12.9766 40.0547 12.7246 39.6914 12.7246C39.3223 12.7246 39.0879 12.9766 39.0879 13.3633V18.4434C39.0879 18.8594 39.3457 19.1113 39.7207 19.1113Z" fill="white"/>
</svg>
