<svg width="32" height="32" viewBox="0 0 32 32" fill="none" xmlns="http://www.w3.org/2000/svg">
<path fill-rule="evenodd" clip-rule="evenodd" d="M16 0C24.8306 0 32 7.16938 32 16C32 24.8306 24.8306 32 16 32C7.16938 32 0 24.8306 0 16C0 7.16938 7.16938 0 16 0ZM16 5.6875C10.3069 5.6875 5.6875 10.3069 5.6875 16C5.6875 21.6931 10.3069 26.3125 16 26.3125C21.682 26.3125 26.3125 21.6931 26.3125 16C26.3125 10.3069 21.682 5.6875 16 5.6875ZM16 24.8137C13.9643 24.8137 12.0854 24.1203 10.5977 22.957C10.7543 22.6326 12.5439 19.1878 17.5099 17.4541C17.5322 17.4429 17.5436 17.4429 17.5659 17.4316C18.8075 20.6417 19.3107 23.3374 19.445 24.1091C18.3824 24.5676 17.2191 24.8137 16 24.8137V24.8137ZM20.9102 23.3037C20.8207 22.7669 20.3511 20.1943 19.1989 17.029C21.9617 16.5927 24.3774 17.3086 24.6794 17.4093C24.2993 19.8588 22.89 21.9728 20.9102 23.3037ZM7.18631 16.0111V15.7428C7.56663 15.7539 11.8393 15.8098 16.2349 14.4901C16.4921 14.9822 16.7271 15.4854 16.9506 15.9889C16.8388 16.0225 16.7159 16.0559 16.6039 16.0895C12.0629 17.5547 9.64687 21.5589 9.44556 21.8944C8.04762 20.3397 7.18631 18.2706 7.18631 16.0111V16.0111ZM22.8116 10.4411C24.0419 11.94 24.7803 13.8525 24.8026 15.9216C24.5118 15.8658 21.6036 15.273 18.6732 15.6422C18.6062 15.4967 18.5501 15.34 18.4831 15.1834C18.304 14.7586 18.1028 14.3224 17.9014 13.9084C21.1451 12.5886 22.6214 10.6872 22.8116 10.4411V10.4411ZM12.2531 8.03625C12.488 8.34956 14.0538 10.5307 15.519 13.1255C11.4031 14.2215 7.76794 14.1993 7.3765 14.1993C7.94675 11.4701 9.79231 9.1995 12.2531 8.03625ZM16 7.20862C18.237 7.20862 20.2838 8.04762 21.8385 9.42331C21.682 9.64687 20.3509 11.4254 17.2191 12.5997C15.7763 9.94906 14.1769 7.77906 13.9309 7.4435C14.5907 7.287 15.2841 7.20862 16 7.20862Z" fill="black"/>
</svg>
