<svg width="40" height="40" viewBox="0 0 40 40" fill="none" xmlns="http://www.w3.org/2000/svg">
<path d="M7.08333 0H32.9167C36.8333 0 40 3.24786 40 7.26496V32.735C40 36.7521 36.8333 40 32.9167 40H7.08333C3.16667 40 0 36.7521 0 32.735V7.26496C0 3.24786 3.16667 0 7.08333 0Z" fill="#470137"/>
<path d="M21.0333 10.5128L16.0333 18.9743L21.3667 27.9487C21.4 28.017 21.4167 28.0854 21.4 28.1538C21.3833 28.2222 21.3167 28.1709 21.2167 28.188H17.4C17.1333 28.188 16.95 28.1709 16.8333 27.9999C16.4833 27.282 16.1167 26.5811 15.7667 25.8632C15.4167 25.1623 15.0333 24.4444 14.6333 23.7093C14.2333 22.9743 13.8333 22.2393 13.4333 21.4871H13.4C13.05 22.2222 12.6667 22.9572 12.2833 23.6923C11.9 24.4273 11.5167 25.1623 11.15 25.8803C10.7667 26.5982 10.3833 27.3333 9.99999 28.0341C9.93332 28.2051 9.79999 28.2222 9.61665 28.2222H5.94999C5.88332 28.2222 5.83332 28.2564 5.83332 28.1709C5.81665 28.1025 5.83332 28.0341 5.86665 27.9828L11.05 19.2649L5.99999 10.4957C5.94999 10.4273 5.93332 10.3589 5.96665 10.3247C5.99999 10.2734 6.06665 10.2563 6.13332 10.2563H9.91665C9.99999 10.2563 10.0833 10.2734 10.15 10.2905C10.2167 10.3247 10.2667 10.376 10.3167 10.4444C10.6333 11.1794 11 11.9145 11.3833 12.6495C11.7833 13.3846 12.1667 14.1025 12.5833 14.8205C12.9833 15.5384 13.35 16.2564 13.7 16.9914H13.7333C14.0833 16.2393 14.45 15.5042 14.8167 14.7863C15.1833 14.0683 15.5667 13.3504 15.95 12.6324C16.3333 11.9145 16.7 11.1794 17.0667 10.4786C17.0833 10.4102 17.1167 10.3418 17.1667 10.3076C17.2333 10.2734 17.3 10.2563 17.3833 10.2734H20.9C20.9833 10.2563 21.0667 10.3076 21.0833 10.3931C21.1 10.4102 21.0667 10.4786 21.0333 10.5128Z" fill="#FF61F6"/>
<path d="M28.7334 28.547C27.5 28.5641 26.2667 28.3077 25.15 27.7778C24.1 27.2821 23.2334 26.4616 22.6334 25.453C22.0167 24.4103 21.7167 23.1111 21.7167 21.5556C21.7 20.2906 22.0167 19.0428 22.6334 17.9487C23.2667 16.8376 24.1834 15.9146 25.2834 15.2992C26.45 14.6325 27.85 14.3077 29.5 14.3077C29.5834 14.3077 29.7 14.3077 29.85 14.3248C30 14.3419 30.1667 14.3419 30.3667 14.359V8.95729C30.3667 8.83763 30.4167 8.76926 30.5334 8.76926H33.9167C34 8.75216 34.0667 8.82054 34.0834 8.88892C34.0834 8.90601 34.0834 8.9231 34.0834 8.9231V25.1966C34.0834 25.5043 34.1 25.8462 34.1167 26.2223C34.15 26.5812 34.1667 26.9231 34.1834 27.2137C34.1834 27.3334 34.1334 27.4359 34.0167 27.4872C33.15 27.8633 32.2334 28.1368 31.3 28.3077C30.45 28.4616 29.6 28.547 28.7334 28.547ZM30.3667 25.1282V17.6069C30.2167 17.5727 30.0667 17.5385 29.9167 17.5214C29.7334 17.5043 29.55 17.4872 29.3667 17.4872C28.7167 17.4872 28.0667 17.624 27.4834 17.9317C26.9167 18.2223 26.4334 18.6496 26.0667 19.1966C25.7 19.7436 25.5167 20.4787 25.5167 21.3676C25.5 21.9658 25.6 22.5641 25.8 23.1282C25.9667 23.5898 26.2167 24 26.55 24.3419C26.8667 24.6496 27.25 24.8889 27.6834 25.0257C28.1334 25.1795 28.6 25.2479 29.0667 25.2479C29.3167 25.2479 29.55 25.2308 29.7667 25.2137C29.9834 25.2308 30.1667 25.1966 30.3667 25.1282Z" fill="#FF61F6"/>
</svg>
