<svg width="40" height="40" viewBox="0 0 40 40" fill="none" xmlns="http://www.w3.org/2000/svg">
<path d="M32.9167 0H7.08333C3.17132 0 0 3.25263 0 7.26496V32.735C0 36.7474 3.17132 40 7.08333 40H32.9167C36.8287 40 40 36.7474 40 32.735V7.26496C40 3.25263 36.8287 0 32.9167 0Z" fill="#00005B"/>
<path d="M16.0691 23.9317H9.87055L8.6094 27.9575C8.59224 28.0308 8.55068 28.0956 8.49189 28.1409C8.4331 28.1861 8.36078 28.2088 8.28738 28.2052H5.1479C4.96886 28.2052 4.90625 28.1043 4.96006 27.9025L10.3268 12.1157C10.3804 11.9506 10.4341 11.7892 10.4877 11.578C10.558 11.2108 10.594 10.8376 10.5951 10.4634C10.5914 10.4373 10.5938 10.4106 10.6019 10.3855C10.6101 10.3604 10.6238 10.3376 10.642 10.319C10.6603 10.3003 10.6825 10.2862 10.7069 10.2778C10.7314 10.2694 10.7574 10.267 10.7829 10.2707H15.0494C15.1743 10.2707 15.2459 10.3166 15.2641 10.4084L21.3553 27.93C21.4089 28.1136 21.3552 28.2054 21.1943 28.2052H17.7059C17.646 28.212 17.5857 28.1962 17.5364 28.1608C17.487 28.1253 17.4519 28.0726 17.4376 28.0126L16.0691 23.9317ZM10.8366 20.5372H15.0763C14.9689 20.1704 14.8437 19.7576 14.7005 19.2988C14.5572 18.8404 14.4051 18.3496 14.2444 17.8264C14.0834 17.3035 13.9224 16.7806 13.7614 16.2576C13.6004 15.7348 13.4528 15.2302 13.3186 14.744C13.1845 14.2581 13.0638 13.8131 12.9564 13.4092H12.9295C12.7786 14.1525 12.5905 14.8874 12.3661 15.6109C12.1153 16.4365 11.8604 17.2805 11.6013 18.1429C11.3418 19.0055 11.0869 19.8036 10.8366 20.5372Z" fill="#9999FF"/>
<path d="M31.2301 22.3648H25.944C26.0087 22.9012 26.1824 23.4178 26.4538 23.8811C26.7539 24.3399 27.1783 24.6986 27.6747 24.9131C28.3474 25.2117 29.0751 25.358 29.808 25.342C30.3894 25.3305 30.9687 25.2653 31.5387 25.1471C32.0485 25.0765 32.5482 24.9429 33.0267 24.7492C33.116 24.6762 33.1609 24.7217 33.1609 24.8869V27.5014C33.1654 27.5726 33.1515 27.6438 33.1206 27.7078C33.0899 27.7578 33.0487 27.8001 32.9999 27.8316C32.4691 28.0728 31.9104 28.2435 31.3374 28.3396C30.5591 28.4895 29.768 28.5587 28.9761 28.546C27.7057 28.546 26.6413 28.3442 25.7829 27.9405C24.9715 27.5739 24.2548 27.0178 23.69 26.3167C23.1624 25.6561 22.77 24.8933 22.5361 24.0737C22.3045 23.2648 22.1871 22.4261 22.1873 21.583C22.1848 20.6625 22.3252 19.7475 22.6032 18.8722C22.8709 18.0184 23.2944 17.2246 23.851 16.5329C24.3999 15.8493 25.0864 15.2954 25.8635 14.9091C26.6504 14.5148 27.5808 14.3733 28.6541 14.3733C29.5442 14.3502 30.4284 14.5288 31.2435 14.8962C31.929 15.196 32.5324 15.6635 33.0011 16.2577C33.4407 16.8395 33.7768 17.4963 33.9939 18.1979C34.2053 18.874 34.314 19.5795 34.3159 20.2896C34.3159 20.6933 34.3025 21.0603 34.2757 21.3904C34.2489 21.7206 34.2265 21.9592 34.2086 22.106C34.2016 22.1666 34.1732 22.2226 34.1287 22.2632C34.0841 22.3038 34.0266 22.3262 33.9671 22.3262C33.8597 22.3262 33.6764 22.3399 33.417 22.3674C33.1575 22.3949 32.8355 22.4133 32.451 22.4225C32.0661 22.4319 31.6594 22.3648 31.2301 22.3648ZM25.944 19.8576H29.4591C29.8885 19.8576 30.206 19.8531 30.4117 19.8439C30.5493 19.8298 30.6822 19.7846 30.8008 19.7116V19.5465C30.7954 19.3312 30.7592 19.118 30.6935 18.9135C30.5487 18.444 30.2576 18.0362 29.865 17.7528C29.4723 17.4694 28.9998 17.326 28.52 17.3448C28.0684 17.3168 27.6186 17.4242 27.2255 17.6538C26.8324 17.8835 26.513 18.2256 26.3062 18.6383C26.1224 19.0221 26.0001 19.4339 25.944 19.8576Z" fill="#9999FF"/>
</svg>
