<svg width="50" height="48" viewBox="0 0 50 48" fill="none" xmlns="http://www.w3.org/2000/svg">
<g clip-path="url(#clip0_104_142)">
<path fill-rule="evenodd" clip-rule="evenodd" d="M8.84197 0H41.1579C46.0605 0 49.9965 3.87535 49.9965 8.70255V39.2975C49.9965 44.1246 46.0605 48 41.1579 48H8.84197C3.93933 48 0.00341797 44.1246 0.00341797 39.2975V8.70255C0.00341797 3.87535 3.93933 0 8.84197 0Z" fill="#330000"/>
<path fill-rule="evenodd" clip-rule="evenodd" d="M24.2404 28.8274H16.5067L14.9185 33.6546C14.8494 33.7906 14.7113 33.9265 14.5042 33.9265H10.5683C10.3611 33.9265 10.292 33.7906 10.3611 33.5186L17.0591 14.5498C17.1281 14.3458 17.1972 14.0739 17.2662 13.8699C17.3353 13.394 17.4043 12.986 17.4043 12.5101C17.4043 12.4421 17.4734 12.3062 17.5424 12.3062C17.6115 12.3062 17.6115 12.3062 17.6115 12.3062H22.9975C23.1356 12.3062 23.2046 12.3741 23.2046 12.4421L30.8693 33.5866C30.8693 33.7906 30.8693 33.9265 30.6622 33.9265H26.2429C26.1048 33.9265 25.9667 33.8586 25.9667 33.6546L24.2404 28.8274ZM17.6805 24.6121H22.9975C22.8594 24.2042 22.7213 23.6603 22.5141 23.1843C22.307 22.6404 22.0998 22.0285 21.9617 21.4166C21.7545 20.7367 21.5474 20.1248 21.3402 19.513C21.1331 18.9011 20.9259 18.2892 20.7878 17.6773C20.5807 17.1333 20.4426 16.5894 20.3045 16.1135C20.0973 16.9974 19.8902 17.8812 19.5449 18.6971C19.2687 19.7169 18.9234 20.7367 18.5782 21.7566C18.302 22.8444 18.0258 23.7962 17.6805 24.6121Z" fill="#FF9A00"/>
<path fill-rule="evenodd" clip-rule="evenodd" d="M35.3576 15.7735C34.6671 15.8415 34.0457 15.5695 33.4932 15.0936C33.0789 14.5497 32.8027 13.8698 32.8027 13.1899C32.8027 12.51 33.0789 11.8301 33.5623 11.3542C34.0457 10.8783 34.7362 10.6743 35.4267 10.6743C36.2553 10.6743 36.8768 10.8783 37.2911 11.3542C37.7744 11.8301 38.0506 12.51 37.9816 13.1899C38.0506 13.8698 37.7744 14.5497 37.2911 15.0936C36.8077 15.5695 36.1172 15.8415 35.3576 15.7735ZM33.0789 33.5865V17.8131C33.0789 17.6092 33.148 17.5412 33.2861 17.5412H37.4292C37.6363 17.5412 37.7054 17.6092 37.7054 17.8131V33.5865C37.7054 33.8585 37.6363 33.9264 37.4292 33.9264H33.3551C33.148 33.9264 33.0789 33.7905 33.0789 33.5865Z" fill="#FF9A00"/>
</g>
<defs>
<clipPath id="clip0_104_142">
<rect width="50" height="48" fill="white"/>
</clipPath>
</defs>
</svg>
