<svg width="50" height="48" viewBox="0 0 50 48" fill="none" xmlns="http://www.w3.org/2000/svg">
<g clip-path="url(#clip0_104_138)">
<path d="M8.85416 0.00488281H41.1458C46.0417 0.00488281 50 3.90152 50 8.72104V39.2789C50 44.0984 46.0417 47.995 41.1458 47.995H8.85416C3.95833 47.995 0 44.0984 0 39.2789V8.72104C0 3.90152 3.95833 0.00488281 8.85416 0.00488281Z" fill="#001E36"/>
<path d="M11.25 33.6595V12.5562C11.25 12.4126 11.3125 12.3306 11.4583 12.3306C11.8125 12.3306 12.1458 12.3306 12.625 12.3101C13.125 12.2896 13.6458 12.2896 14.2083 12.269C14.7708 12.2485 15.375 12.2485 16.0208 12.228C16.6667 12.2075 17.2917 12.2075 17.9167 12.2075C19.625 12.2075 21.0417 12.4126 22.2083 12.8433C23.25 13.1919 24.2083 13.7662 25 14.525C25.6667 15.1813 26.1875 15.9811 26.5208 16.863C26.8333 17.7243 27 18.6062 27 19.5291C27 21.2928 26.5833 22.7489 25.75 23.8974C24.9167 25.0459 23.75 25.9073 22.3958 26.3995C20.9792 26.9122 19.4167 27.0968 17.7083 27.0968C17.2083 27.0968 16.875 27.0968 16.6667 27.0763C16.4583 27.0558 16.1667 27.0558 15.7708 27.0558V33.639C15.7917 33.7826 15.6875 33.9056 15.5417 33.9261H11.5C11.3333 33.9261 11.25 33.8441 11.25 33.6595ZM15.7917 16.2887V23.1796C16.0833 23.2001 16.3542 23.2206 16.6042 23.2206H17.7083C18.5208 23.2206 19.3333 23.0976 20.1042 22.8515C20.7708 22.6669 21.3542 22.2772 21.8125 21.7645C22.25 21.2518 22.4583 20.5545 22.4583 19.6521C22.4792 19.0164 22.3125 18.3806 21.9792 17.8269C21.625 17.2937 21.125 16.8835 20.5208 16.6579C19.75 16.3503 18.9167 16.2272 18.0625 16.2477C17.5208 16.2477 17.0417 16.2477 16.6458 16.2682C16.2292 16.2477 15.9375 16.2682 15.7917 16.2887ZM40 21.9286C39.375 21.6005 38.7083 21.3749 38 21.2313C37.2292 21.0672 36.4583 20.9647 35.6667 20.9647C35.25 20.9442 34.8125 21.0057 34.4167 21.1083C34.1458 21.1698 33.9167 21.3133 33.7708 21.5184C33.6667 21.6825 33.6042 21.8876 33.6042 22.0722C33.6042 22.2567 33.6875 22.4413 33.8125 22.6054C34 22.831 34.25 23.0156 34.5208 23.1591C35 23.4052 35.5 23.6308 36 23.8359C37.125 24.2051 38.2083 24.7178 39.2083 25.333C39.8958 25.7637 40.4583 26.338 40.8542 27.0352C41.1875 27.6915 41.3542 28.4093 41.3333 29.1476C41.3542 30.1115 41.0625 31.0754 40.5208 31.8753C39.9375 32.6956 39.125 33.3314 38.1875 33.7005C37.1667 34.1312 35.9167 34.3568 34.4167 34.3568C33.4583 34.3568 32.5208 34.2748 31.5833 34.0902C30.8542 33.9672 30.125 33.7416 29.4583 33.4339C29.3125 33.3519 29.2083 33.2083 29.2292 33.0443V29.4758C29.2292 29.4142 29.25 29.3322 29.3125 29.2912C29.375 29.2502 29.4375 29.2707 29.5 29.3117C30.3125 29.7834 31.1667 30.1115 32.0833 30.3166C32.875 30.5217 33.7083 30.6243 34.5417 30.6243C35.3333 30.6243 35.8958 30.5217 36.2708 30.3371C36.6042 30.1936 36.8333 29.8449 36.8333 29.4758C36.8333 29.1886 36.6667 28.922 36.3333 28.6554C36 28.3888 35.3125 28.0812 34.2917 27.6915C33.2292 27.3224 32.25 26.8302 31.3333 26.2149C30.6875 25.7637 30.1458 25.169 29.75 24.4717C29.4167 23.8154 29.25 23.0976 29.2708 22.3798C29.2708 21.4979 29.5208 20.6571 29.9792 19.8982C30.5 19.0779 31.2708 18.4216 32.1667 18.0115C33.1458 17.5193 34.375 17.2937 35.8542 17.2937C36.7083 17.2937 37.5833 17.3552 38.4375 17.4782C39.0625 17.5603 39.6667 17.7243 40.2292 17.9499C40.3125 17.9704 40.3958 18.0525 40.4375 18.1345C40.4583 18.2165 40.4792 18.2986 40.4792 18.3806V21.7235C40.4792 21.8055 40.4375 21.8876 40.375 21.9286C40.1875 21.9696 40.0833 21.9696 40 21.9286Z" fill="#31A8FF"/>
</g>
<defs>
<clipPath id="clip0_104_138">
<rect width="50" height="48" fill="white"/>
</clipPath>
</defs>
</svg>
