<svg width="16" height="16" viewBox="0 0 16 16" fill="none" xmlns="http://www.w3.org/2000/svg">
<path d="M12.9996 1.99988H11.4996V1.49988C11.4996 1.36727 11.447 1.24009 11.3532 1.14632C11.2594 1.05256 11.1322 0.999878 10.9996 0.999878C10.867 0.999878 10.7398 1.05256 10.6461 1.14632C10.5523 1.24009 10.4996 1.36727 10.4996 1.49988V1.99988H5.49963V1.49988C5.49963 1.36727 5.44696 1.24009 5.35319 1.14632C5.25942 1.05256 5.13224 0.999878 4.99963 0.999878C4.86703 0.999878 4.73985 1.05256 4.64608 1.14632C4.55231 1.24009 4.49963 1.36727 4.49963 1.49988V1.99988H2.99963C2.7345 2.00014 2.4803 2.10558 2.29282 2.29306C2.10534 2.48054 1.9999 2.73474 1.99963 2.99988V12.9999C1.9999 13.265 2.10534 13.5192 2.29282 13.7067C2.4803 13.8942 2.7345 13.9996 2.99963 13.9999H12.9996C13.2648 13.9996 13.519 13.8942 13.7065 13.7067C13.8939 13.5192 13.9994 13.265 13.9996 12.9999V2.99988C13.9994 2.73474 13.8939 2.48054 13.7065 2.29306C13.519 2.10558 13.2648 2.00014 12.9996 1.99988ZM12.9996 4.99988H2.99963V2.99988H4.49963V3.49988C4.49963 3.63249 4.55231 3.75966 4.64608 3.85343C4.73985 3.9472 4.86703 3.99988 4.99963 3.99988C5.13224 3.99988 5.25942 3.9472 5.35319 3.85343C5.44696 3.75966 5.49963 3.63249 5.49963 3.49988V2.99988H10.4996V3.49988C10.4996 3.63249 10.5523 3.75966 10.6461 3.85343C10.7398 3.9472 10.867 3.99988 10.9996 3.99988C11.1322 3.99988 11.2594 3.9472 11.3532 3.85343C11.447 3.75966 11.4996 3.63249 11.4996 3.49988V2.99988H12.9996V4.99988Z" fill="#566069"/>
</svg>
