<svg width="47" height="47" viewBox="0 0 47 47" fill="none" xmlns="http://www.w3.org/2000/svg">
<rect width="47" height="47" rx="12" fill="#FF3300"/>
<path d="M29.6178 8.92474C29.311 8.7117 28.9982 8.51644 28.6832 8.34284C28.4796 8.24115 28.2774 8.14407 28.0793 8.05086C27.9798 8.00522 27.8825 7.95682 27.7831 7.91639C27.683 7.87888 27.5835 7.84173 27.4857 7.80517C27.2894 7.73289 27.0975 7.66483 26.9118 7.60091C26.7223 7.54801 26.5378 7.50074 26.3609 7.4557C26.1835 7.41415 26.015 7.3635 25.8505 7.33887C25.6867 7.31322 25.5308 7.28883 25.3845 7.26568C25.2379 7.24505 25.1005 7.22565 24.9736 7.20764C24.8463 7.19975 24.7293 7.1925 24.6234 7.18587C24.3843 7.17274 24.2059 7.16524 24.0934 7.16112V7.15637C24.0934 7.15637 24.072 7.15712 24.0325 7.15875C23.9857 7.15712 23.9586 7.15637 23.9586 7.15637V7.16161C23.9038 7.16386 23.8327 7.16663 23.7456 7.17012C23.6324 7.17573 23.4927 7.18312 23.3284 7.19148C23.2463 7.19698 23.1581 7.20049 23.064 7.20952C22.9744 7.22214 22.8792 7.23564 22.779 7.24954C22.5441 7.27792 22.3616 7.4717 22.3616 7.70937C22.3616 7.96629 22.5746 8.1748 22.8374 8.1748C22.8739 8.1748 22.9093 8.1698 22.9434 8.16215C23.0128 8.15355 23.1031 8.14654 23.1614 8.13829C23.2464 8.13015 23.3263 8.12738 23.4007 8.12252C23.5494 8.1149 23.676 8.10838 23.7787 8.10298C23.8886 8.09848 23.97 8.09498 24.0229 8.09299C24.1131 8.09711 24.2967 8.10537 24.5608 8.11752C24.6565 8.12328 24.7624 8.12964 24.8776 8.13666C24.9926 8.15304 25.1167 8.17081 25.2491 8.1898C25.3815 8.21044 25.5225 8.23232 25.6711 8.25536C25.82 8.27711 25.9718 8.32414 26.1325 8.36168C26.2925 8.4022 26.4595 8.44473 26.6309 8.49214C26.7982 8.55206 26.9715 8.61399 27.1494 8.67766C27.2381 8.71041 27.3279 8.74371 27.4188 8.77758C27.5085 8.81398 27.5962 8.85838 27.6864 8.89969C27.8656 8.98411 28.0485 9.0718 28.2327 9.16297C28.5241 9.32436 28.8137 9.50562 29.0973 9.70362L29.0978 9.70312C29.1738 9.75304 29.2651 9.7823 29.3636 9.7823C29.6264 9.7823 29.8392 9.57391 29.8392 9.31697C29.8391 9.15165 29.7507 9.00727 29.6178 8.92474Z" fill="white"/>
<path d="M21.1429 8.2644C21.1429 8.00724 20.9298 7.79883 20.667 7.79883C20.5894 7.79883 20.5173 7.81872 20.4529 7.85084L20.4513 7.84811C20.4249 7.85786 20.3989 7.86751 20.372 7.87741C20.2144 7.93104 20.0634 8.01075 19.9047 8.08302C19.7478 8.15885 19.5872 8.23652 19.4231 8.31569C19.262 8.4 19.1048 8.49893 18.9419 8.59513C18.782 8.69558 18.6113 8.78741 18.4547 8.90435C18.1944 9.09674 17.9771 9.24184 17.7225 9.46112C17.6223 9.5463 17.5577 9.67052 17.5577 9.81086C17.5577 10.0679 17.7707 10.2763 18.0335 10.2763C18.164 10.2763 18.2822 10.2248 18.3682 10.1413C18.574 9.97308 18.7884 9.82337 18.9922 9.67151C19.1336 9.56482 19.2888 9.48311 19.4333 9.39208C19.5807 9.30526 19.7227 9.21493 19.8685 9.13875C20.0168 9.0672 20.1621 8.99716 20.3043 8.92873C20.4478 8.86356 20.5836 8.79025 20.7268 8.74248C20.7649 8.72883 20.8142 8.71069 20.8452 8.69542C21.0195 8.62641 21.1429 8.45992 21.1429 8.2644Z" fill="white"/>
<path d="M31.948 16.4263L31.9495 16.4261C31.9448 16.3414 31.9392 16.2475 31.9331 16.1451C31.9179 16.0435 31.9015 15.9336 31.884 15.8162C31.8658 15.6988 31.8461 15.5741 31.8254 15.4424C31.8067 15.3106 31.7625 15.1765 31.7289 15.0341C31.6915 14.8928 31.6521 14.7456 31.6116 14.5931C31.5576 14.4447 31.5015 14.2915 31.4439 14.1339C31.414 14.0555 31.3842 13.9759 31.3539 13.8954C31.321 13.8158 31.2806 13.7384 31.2432 13.6588C31.1656 13.5006 31.0865 13.3388 31.0057 13.1745C30.6443 12.5373 30.1781 11.905 29.6274 11.3483C29.0649 10.803 28.4263 10.3414 27.7822 9.9835C27.6164 9.90358 27.4532 9.82529 27.2935 9.74847C27.2129 9.71133 27.1348 9.67141 27.0544 9.63879C26.973 9.60874 26.8927 9.57912 26.8133 9.54996C26.6541 9.49279 26.4995 9.43725 26.3499 9.3836C26.1957 9.34344 26.0469 9.30478 25.9038 9.26763C25.7603 9.23423 25.6247 9.19071 25.4917 9.17207C25.3588 9.1517 25.2324 9.13205 25.1142 9.11404C24.9954 9.09665 24.8844 9.0805 24.7818 9.06548C24.6785 9.05948 24.5837 9.05399 24.4978 9.04914C24.3217 9.04088 24.1855 9.03437 24.0935 9.03012V9.02386C24.0935 9.02386 24.0695 9.02488 24.024 9.02688C23.9824 9.02488 23.9587 9.02386 23.9587 9.02386V9.02988C23.9181 9.03161 23.8697 9.03375 23.8115 9.03638C23.7196 9.0409 23.6063 9.04676 23.473 9.05352C23.4064 9.0579 23.3348 9.05977 23.2586 9.06728C23.1826 9.07817 23.1023 9.08993 23.017 9.10233C22.8469 9.12834 22.6579 9.1541 22.454 9.19127C22.2527 9.24244 22.0351 9.29772 21.8026 9.3565C21.5716 9.42103 21.3347 9.51785 21.0813 9.60768C20.9532 9.64945 20.8321 9.7165 20.7037 9.77467C20.5765 9.83559 20.4465 9.89812 20.3136 9.96192C20.1832 10.0301 20.0568 10.1115 19.9248 10.1891C19.7957 10.2709 19.6561 10.3426 19.5298 10.4388C19.277 10.629 19.0028 10.811 18.7601 11.0445C18.2461 11.4799 17.7891 12.0294 17.3774 12.6331C17.2818 12.7891 17.1854 12.9466 17.0881 13.1051C16.9935 13.265 16.9193 13.4377 16.8345 13.606C16.7937 13.6909 16.7528 13.776 16.7118 13.8614C16.6781 13.9498 16.6445 14.0387 16.6107 14.1277C16.5466 14.307 16.473 14.4844 16.4193 14.6685C16.1962 15.4057 16.0922 16.1835 16.0769 16.9602C16.0922 17.7367 16.1962 18.5148 16.4193 19.2516C16.473 19.4357 16.5466 19.6133 16.6107 19.7925C16.6445 19.8814 16.6781 19.9704 16.7118 20.0589C16.7527 20.1444 16.7937 20.2294 16.8345 20.3144C16.9128 20.4697 16.9163 20.5037 17.0012 20.6532L17.0018 20.6527C17.0834 20.7941 17.2367 20.8906 17.4144 20.8906C17.6774 20.8906 17.8903 20.6824 17.8903 20.4253C17.8903 20.3328 17.862 20.2472 17.8145 20.1748C17.7728 20.0897 17.732 20.004 17.6888 19.9191L17.58 19.6941L17.4917 19.459C17.4357 19.3008 17.3695 19.1448 17.3224 18.9823C17.1258 18.3325 17.0354 17.6465 17.0201 16.9602C17.0354 16.2737 17.1258 15.5878 17.3224 14.938C17.3695 14.7755 17.4357 14.6196 17.4917 14.4612L17.58 14.2263L17.6888 14.0012C17.7641 13.8531 17.8283 13.7001 17.9121 13.5594C17.9978 13.4196 18.0831 13.2807 18.1675 13.143C18.5319 12.6111 18.9333 12.124 19.3883 11.741C19.6015 11.5335 19.8452 11.3751 20.0674 11.2058C20.1781 11.1203 20.3024 11.0585 20.4162 10.986C20.5326 10.9178 20.6439 10.8449 20.759 10.785C20.8761 10.7289 20.991 10.6739 21.1031 10.6204C21.2165 10.5693 21.3226 10.5087 21.4361 10.4729C21.6597 10.3948 21.8682 10.3079 22.0717 10.2514C22.2767 10.1993 22.4685 10.1504 22.646 10.1054C22.8259 10.0734 22.9929 10.051 23.1428 10.0276C23.218 10.0163 23.2889 10.0058 23.3559 9.99581C23.4231 9.98943 23.4865 9.98804 23.5454 9.98453C23.6632 9.97852 23.7632 9.97353 23.8443 9.96941C23.923 9.96566 23.9836 9.96276 24.0254 9.96066C24.1018 9.96466 24.2416 9.97141 24.4349 9.98078C24.5107 9.9848 24.5946 9.98943 24.6861 9.99432C24.7765 10.0079 24.8741 10.0224 24.9787 10.0381C25.0836 10.054 25.1947 10.071 25.312 10.0889C25.4298 10.1044 25.5488 10.1444 25.6756 10.1736C25.8015 10.2059 25.9326 10.2398 26.0689 10.2748C26.2005 10.3225 26.3369 10.3717 26.4772 10.4224C26.5472 10.4479 26.6182 10.4738 26.69 10.5C26.7608 10.5287 26.8295 10.5646 26.9003 10.5973C27.0412 10.6646 27.1856 10.7338 27.3319 10.8039C27.8994 11.1207 28.463 11.5279 28.9603 12.0086C29.446 12.5007 29.8571 13.0588 30.1773 13.6204C30.2481 13.7655 30.3175 13.9083 30.3858 14.0479C30.4189 14.118 30.4553 14.1861 30.4841 14.256C30.5103 14.3272 30.5369 14.3975 30.5626 14.4668C30.6134 14.6056 30.6635 14.7406 30.7115 14.8713C30.7469 15.0058 30.781 15.1358 30.8138 15.2605C30.8434 15.3859 30.8838 15.5038 30.8995 15.6202C30.9177 15.7364 30.9346 15.8465 30.9506 15.95C30.9665 16.0536 30.97 16.1577 30.9837 16.2474C30.9852 16.3131 30.9932 16.3888 30.9991 16.4541C30.9991 16.4544 30.9991 16.4547 30.9991 16.4551C30.9991 16.4588 31.0001 16.4622 31.0001 16.4658C31.0021 16.4851 31.0036 16.5038 31.0047 16.5204L31.0059 16.5202C31.0385 16.7463 31.2351 16.9206 31.4749 16.9206C31.7377 16.9206 31.9508 16.7123 31.9508 16.4551C31.9508 16.4451 31.9483 16.436 31.948 16.4263Z" fill="white"/>
<path d="M30.0423 29.3253H30.0428C30.0415 29.3156 30.0405 29.3068 30.0393 29.2973C30.0377 29.2783 30.0367 29.2585 30.0329 29.2405C29.9927 28.8913 29.9311 28.6243 29.8264 28.2786C29.786 28.138 29.7274 28.0034 29.6794 27.8663L29.6038 27.6624L29.5085 27.4681C29.4428 27.3402 29.389 27.2068 29.316 27.085C29.2414 26.9639 29.1674 26.8436 29.0941 26.7243C28.7772 26.2645 28.4315 25.8402 28.0355 25.5089C27.8518 25.3273 27.6385 25.1927 27.447 25.0446C27.3515 24.9696 27.2428 24.9175 27.1442 24.8545C27.0432 24.7954 26.9474 24.7314 26.8476 24.6791C26.746 24.6311 26.6464 24.5838 26.5494 24.5377C26.4511 24.4937 26.3599 24.4394 26.2613 24.4094C26.0667 24.3434 25.8873 24.2661 25.7109 24.2178C25.5335 24.1725 25.3675 24.13 25.2139 24.091C25.0579 24.0637 24.9131 24.0454 24.7833 24.0244C24.7183 24.0146 24.6566 24.0049 24.5988 23.9959C24.5404 23.9906 24.4853 23.9901 24.4343 23.9869C24.3322 23.9816 24.2452 23.9776 24.1748 23.9739C24.1439 23.9724 24.1178 23.9711 24.0934 23.9699L24.0575 23.9646C24.0575 23.9646 24.0067 23.9586 23.8442 23.9508C23.7631 23.9468 23.6631 23.9416 23.5452 23.9358C23.4864 23.9321 23.423 23.9306 23.3557 23.9243C23.2888 23.9146 23.2179 23.9038 23.1427 23.8926C22.9928 23.8691 22.8258 23.847 22.6459 23.815C22.4684 23.7695 22.2766 23.7212 22.0716 23.6689C21.8681 23.6124 21.6596 23.5253 21.4359 23.4475C21.3225 23.4115 21.2164 23.3509 21.103 23.2999C20.9909 23.2462 20.876 23.1914 20.7588 23.1352C20.6437 23.0753 20.5325 23.0025 20.4161 22.9346C20.3023 22.862 20.178 22.7999 20.0673 22.7145C19.8451 22.5453 19.6014 22.3868 19.3882 22.1792C19.2919 22.0982 19.1984 22.0114 19.1068 21.9216C19.02 21.8318 18.8979 21.775 18.7616 21.775C18.4989 21.775 18.2859 21.9834 18.2859 22.2405C18.2859 22.3753 18.3454 22.4958 18.439 22.5808C18.5437 22.6837 18.6502 22.7828 18.76 22.8756C19.0027 23.1092 19.2769 23.291 19.5297 23.4815C19.6559 23.5778 19.7955 23.6492 19.9247 23.7312C20.0567 23.8088 20.183 23.8903 20.3134 23.9584C20.4464 24.0222 20.5764 24.0845 20.7036 24.146C20.832 24.2038 20.953 24.2711 21.0812 24.3126C21.3346 24.4024 21.5715 24.4992 21.8025 24.5638C22.035 24.6226 22.2525 24.6779 22.4538 24.7287C22.6578 24.7659 22.8468 24.7917 23.0169 24.8182C23.1022 24.8305 23.1825 24.8422 23.2585 24.8532C23.3346 24.8605 23.4063 24.8625 23.4729 24.867C23.6062 24.8735 23.7195 24.8795 23.8113 24.8838C23.8696 24.8868 23.9031 24.8903 23.9438 24.8925L23.9754 24.8965C23.9754 24.8965 24.0222 24.9003 24.1416 24.907C24.2016 24.91 24.2753 24.9138 24.362 24.918C24.4052 24.9203 24.4519 24.9203 24.5014 24.9248C24.5505 24.9326 24.6026 24.9408 24.6574 24.9498C24.7673 24.9663 24.8891 24.9851 25.0218 25.0051C25.1509 25.0396 25.2914 25.0759 25.4415 25.1126C25.5908 25.1529 25.7417 25.2202 25.9065 25.2745C25.9904 25.2985 26.0667 25.3463 26.1496 25.3833C26.2322 25.4224 26.3164 25.4619 26.4023 25.5029C26.4869 25.5462 26.567 25.6015 26.6529 25.6513C26.7359 25.705 26.8289 25.7468 26.9092 25.8114C27.0699 25.9387 27.2529 26.0501 27.407 26.2051C27.7441 26.4838 28.0344 26.8461 28.3041 27.2344C28.3663 27.3352 28.4289 27.4368 28.4916 27.5391C28.5543 27.6421 28.5982 27.7555 28.6541 27.8636L28.7357 28.0274L28.7984 28.2C28.8383 28.3161 28.8898 28.4289 28.9235 28.548C29.0026 28.8105 29.0556 29.0814 29.0912 29.3561H29.0935C29.1041 29.604 29.3113 29.8024 29.5676 29.8024C29.8304 29.8024 30.0434 29.5938 30.0434 29.3368C30.0435 29.3326 30.0425 29.3293 30.0423 29.3253Z" fill="white"/>
<path d="M29.8623 31.6232C29.8623 31.3663 29.6493 31.1576 29.3865 31.1576C29.1571 31.1576 28.9655 31.3167 28.9208 31.5284L28.9205 31.5282C28.8867 31.6472 28.8384 31.7536 28.7985 31.8699L28.7358 32.0423L28.6542 32.2062C28.5983 32.3142 28.5544 32.4276 28.4917 32.5304C28.429 32.6325 28.3664 32.7345 28.3042 32.8353C28.0345 33.2236 27.7442 33.5854 27.4071 33.8643C27.253 34.0197 27.0701 34.1313 26.9093 34.2578C26.829 34.3224 26.736 34.3644 26.6531 34.4185C26.5671 34.468 26.487 34.5235 26.4024 34.5671C26.3165 34.6076 26.2323 34.6472 26.1497 34.6864C26.0668 34.7234 25.9905 34.771 25.9066 34.7947C25.7418 34.8493 25.5909 34.9168 25.4416 34.9568C25.2915 34.9939 25.151 35.0299 25.0219 35.0642C24.8892 35.0847 24.7674 35.1035 24.6575 35.1197C24.6027 35.1287 24.5506 35.137 24.5016 35.145C24.4521 35.1492 24.4053 35.1492 24.3621 35.1517C24.2755 35.156 24.2017 35.1597 24.1418 35.1625C24.0914 35.1655 24.0532 35.1675 24.0233 35.1695C23.9641 35.1663 23.8696 35.161 23.7428 35.154C23.6869 35.1517 23.6253 35.1493 23.558 35.1463C23.4918 35.1358 23.4201 35.1242 23.3435 35.1122C23.2668 35.1007 23.1851 35.0887 23.0992 35.0762C23.0125 35.0664 22.9264 35.0334 22.8334 35.0129C22.7412 34.9896 22.6449 34.9659 22.5455 34.9408C22.449 34.9053 22.3496 34.8688 22.2473 34.8313C22.1958 34.813 22.1438 34.7945 22.091 34.776C22.0392 34.7552 21.9894 34.7275 21.9376 34.7034C21.8341 34.6547 21.7284 34.6046 21.6208 34.5536C21.2064 34.3189 20.7926 34.0207 20.4256 33.6692C20.0703 33.3057 19.7693 32.8959 19.5321 32.4861C19.4808 32.3795 19.4304 32.275 19.381 32.1722C19.3568 32.1209 19.3287 32.0716 19.3076 32.0203C19.2888 31.9681 19.2702 31.9167 19.2517 31.8657C19.2138 31.7644 19.1768 31.6658 19.1411 31.5707C19.1159 31.4719 19.0915 31.3766 19.0683 31.2853C19.0473 31.1932 19.0142 31.1079 19.0042 31.0224C18.9915 30.9373 18.9795 30.8562 18.9681 30.7804C18.9558 30.7049 18.9443 30.6336 18.9337 30.5683C18.9308 30.5015 18.9281 30.4405 18.9255 30.3852C18.9133 30.1642 18.9051 30.0444 18.9051 30.0444C18.9051 29.787 18.692 29.5789 18.4292 29.5789C18.1664 29.5789 17.9534 29.787 17.9534 30.0444C17.9534 30.0714 17.9569 30.0977 17.9616 30.1235C17.9679 30.1908 17.9769 30.2993 17.9846 30.4472C17.9878 30.5125 17.9914 30.5846 17.9956 30.6631C18.0074 30.7407 18.0207 30.8247 18.0347 30.9143C18.0485 31.0041 18.0629 31.0994 18.0783 31.2C18.0912 31.3011 18.128 31.4029 18.1531 31.5115C18.1813 31.6195 18.2106 31.7324 18.2408 31.849C18.2827 31.9615 18.3261 32.0784 18.3707 32.1982C18.3927 32.2587 18.415 32.3195 18.4376 32.3813C18.4628 32.4416 18.4949 32.5006 18.5236 32.5614C18.5823 32.6825 18.6425 32.8061 18.7035 32.9317C18.9821 33.418 19.3382 33.9014 19.7586 34.3292C20.1908 34.7455 20.6796 35.0982 21.1704 35.3739C21.2973 35.4344 21.4223 35.4937 21.5446 35.5523C21.606 35.5803 21.6652 35.6123 21.7266 35.6371C21.7887 35.6596 21.8504 35.6813 21.9111 35.7036C22.0324 35.7476 22.1504 35.7904 22.2645 35.8322C22.3821 35.8622 22.4958 35.891 22.6051 35.9188C22.7149 35.9438 22.8174 35.9801 22.9197 35.9926C23.0213 36.0083 23.1177 36.0224 23.2084 36.0358C23.2988 36.0501 23.3836 36.0631 23.462 36.0752C23.5412 36.0787 23.6141 36.0824 23.6798 36.0854C23.7966 36.0916 23.8622 36.0974 23.9313 36.1007H23.9671C23.9671 36.1007 23.9965 36.0984 24.0253 36.1032C24.0576 36.1027 24.0808 36.1007 24.0808 36.1007L24.1146 36.0964C24.1389 36.0954 24.1441 36.0974 24.1749 36.0954C24.2454 36.0922 24.3323 36.0877 24.4344 36.0829C24.4854 36.0797 24.5406 36.0792 24.5989 36.0734C24.6568 36.0646 24.7184 36.0552 24.7834 36.0454C24.9133 36.0246 25.0581 36.0059 25.214 35.9786C25.3676 35.9396 25.5336 35.8973 25.711 35.852C25.8875 35.8035 26.0669 35.7264 26.2615 35.6601C26.36 35.6301 26.4512 35.5764 26.5496 35.5318C26.6466 35.4858 26.7461 35.4385 26.8477 35.3902C26.9475 35.3384 27.0433 35.2744 27.1444 35.2156C27.243 35.1523 27.3516 35.1003 27.4471 35.0252C27.6387 34.8771 27.852 34.7423 28.0357 34.5609C28.4316 34.2296 28.7774 33.8054 29.0942 33.345C29.1675 33.2257 29.2415 33.1058 29.3161 32.9847C29.3892 32.8629 29.443 32.7296 29.5087 32.6017L29.604 32.4071L29.6795 32.2035C29.7275 32.0664 29.7877 31.9418 29.8278 31.8012C29.8351 31.7771 29.8357 31.7739 29.8422 31.7504C29.854 31.7098 29.8623 31.6675 29.8623 31.6232Z" fill="white"/>
<path d="M29.8105 15.1595L29.8108 15.1593C29.8098 15.1558 29.8083 15.1521 29.807 15.1485C29.8022 15.1335 29.7977 15.1184 29.7911 15.1043C29.7552 15.0057 29.7188 14.901 29.6814 14.7997C29.6592 14.7395 29.6369 14.6785 29.6142 14.6168C29.5892 14.5563 29.5571 14.4976 29.5283 14.437C29.4697 14.3157 29.4095 14.192 29.3483 14.0662C29.0699 13.5804 28.7136 13.0965 28.2936 12.6687C27.8609 12.2524 27.3727 11.8999 26.8815 11.624C26.7547 11.5636 26.6298 11.5042 26.5075 11.4459C26.4458 11.4176 26.3867 11.3858 26.3256 11.3609C26.2631 11.3385 26.2017 11.3164 26.1408 11.2946C26.0198 11.2506 25.9018 11.2076 25.7875 11.166C25.6698 11.1362 25.5563 11.1071 25.4469 11.0794C25.3372 11.0544 25.2346 11.0181 25.1323 11.0053C25.0307 10.99 24.9342 10.9755 24.8437 10.962C24.7532 10.948 24.6683 10.9351 24.59 10.923C24.5106 10.9193 24.4378 10.9156 24.3719 10.9124C24.2554 10.9064 24.1624 10.9015 24.0934 10.898L24.0765 10.8974C24.0765 10.8974 24.0644 10.893 24.0217 10.8952C23.9775 10.893 23.9734 10.8995 23.9734 10.8995L23.9586 10.8982C23.9341 10.8995 23.9079 10.9008 23.8772 10.9025C23.8068 10.906 23.7198 10.9103 23.6177 10.9154C23.5665 10.9184 23.5114 10.919 23.4531 10.9245C23.3952 10.9334 23.3336 10.9429 23.2687 10.9529C23.1387 10.9735 22.994 10.9922 22.838 11.0193C22.6845 11.0586 22.5185 11.1009 22.3411 11.1462C22.1647 11.1946 21.985 11.2718 21.7907 11.338C21.6921 11.3678 21.6009 11.422 21.5026 11.466C21.4054 11.5124 21.3059 11.5597 21.2042 11.608C21.1045 11.6599 21.0086 11.7238 20.9075 11.7827C20.8093 11.846 20.7007 11.8978 20.605 11.9727C20.4133 12.121 20.2001 12.2558 20.0165 12.4373C19.974 12.473 19.9791 12.4667 19.9378 12.5042L19.9381 12.5046C19.8515 12.5889 19.7974 12.7057 19.7974 12.835C19.7974 13.092 20.0105 13.3004 20.2732 13.3004C20.3964 13.3004 20.5076 13.2535 20.592 13.1782L20.5927 13.1791C20.6101 13.1639 20.627 13.1484 20.6447 13.1337C20.7988 12.9784 20.9818 12.8671 21.1428 12.74C21.223 12.6755 21.316 12.6336 21.3991 12.5797C21.4847 12.53 21.565 12.4749 21.6494 12.4312C21.7355 12.3903 21.8197 12.3508 21.9021 12.3117C21.9852 12.2747 22.0616 12.227 22.1453 12.203C22.3101 12.1489 22.461 12.0813 22.6103 12.0409C22.7606 12.0044 22.9008 11.9682 23.0302 11.9336C23.1626 11.9133 23.2844 11.8948 23.3945 11.8782C23.4494 11.8694 23.5015 11.8609 23.5504 11.8531C23.5998 11.8486 23.6466 11.8488 23.69 11.8464C23.7766 11.842 23.8503 11.8385 23.9101 11.8354C23.9605 11.8326 23.9985 11.8304 24.0284 11.8286C24.0876 11.8319 24.1821 11.8371 24.309 11.844C24.3651 11.8464 24.4267 11.849 24.4939 11.852C24.5602 11.8624 24.6319 11.8739 24.7085 11.886C24.785 11.8973 24.867 11.9092 24.9528 11.9219C25.0395 11.9316 25.1257 11.9644 25.2182 11.9851C25.3107 12.0082 25.4067 12.0324 25.5065 12.0574C25.6028 12.0927 25.7023 12.1293 25.8047 12.167C25.856 12.1851 25.9083 12.2033 25.9609 12.222C26.0127 12.2429 26.0624 12.2707 26.1143 12.2948C26.2178 12.3437 26.3235 12.3935 26.4311 12.4444C26.8456 12.6792 27.2595 12.9772 27.6264 13.3289C27.9817 13.6924 28.2824 14.102 28.52 14.5121C28.571 14.6187 28.6215 14.7234 28.671 14.8257C28.6953 14.8772 28.7231 14.9264 28.7444 14.9777C28.7631 15.0299 28.7818 15.0816 28.8 15.1325C28.8338 15.2221 28.8674 15.3285 28.8993 15.4141C28.9541 15.6124 29.137 15.759 29.3569 15.759C29.6197 15.759 29.833 15.5506 29.833 15.2936C29.8331 15.2465 29.8237 15.2021 29.8105 15.1595Z" fill="white"/>
<path d="M25.6924 13.1325L25.6934 13.1308C25.6643 13.1163 25.6262 13.0951 25.5969 13.0833C25.5534 13.0685 25.5107 13.0536 25.4685 13.0392C25.3846 13.0096 25.3037 12.9794 25.2257 12.9486C25.1443 12.9286 25.0657 12.9095 24.9902 12.891C24.9141 12.8745 24.8446 12.8451 24.7735 12.8384C24.7031 12.8284 24.6361 12.8189 24.5734 12.8099C24.511 12.7997 24.4524 12.7899 24.3983 12.7808C24.3429 12.7789 24.2922 12.7772 24.2464 12.7755C24.1863 12.773 24.1356 12.7702 24.0935 12.7679L24.0556 12.7689C24.0556 12.7689 24.0672 12.7658 24.0218 12.7689C23.9808 12.766 23.9796 12.7668 23.9796 12.7668L23.9587 12.7678C23.953 12.768 23.949 12.7683 23.943 12.7688C23.8938 12.771 23.8335 12.7739 23.7625 12.7771C23.7267 12.779 23.6882 12.7782 23.6477 12.7817C23.6078 12.7885 23.5652 12.7959 23.5204 12.8034C23.4304 12.8168 23.3307 12.8316 23.2223 12.8476C23.1168 12.8774 23.0029 12.9071 22.8796 12.9357C22.7575 12.9681 22.6351 13.0259 22.5001 13.0682C22.431 13.0862 22.3697 13.1275 22.3017 13.1576C22.2343 13.189 22.1653 13.2211 22.0949 13.2541C22.0256 13.2896 21.9607 13.3364 21.8906 13.3766C21.823 13.4211 21.7452 13.453 21.6805 13.5072C21.5499 13.6132 21.3977 13.7008 21.2728 13.8301C20.995 14.0566 20.7601 14.3564 20.5377 14.6724C20.4886 14.7561 20.4374 14.8392 20.3841 14.9219C20.3322 15.0057 20.2988 15.0994 20.2522 15.187L20.1845 15.3205L20.1342 15.462C20.1026 15.5569 20.0585 15.6485 20.0314 15.7458C19.9277 16.0905 19.8801 16.442 19.8595 16.8084C19.8559 16.8313 19.8523 16.8542 19.8523 16.878C19.8523 16.8833 19.8536 16.8881 19.8538 16.8934C19.8538 16.8949 19.8536 16.8961 19.8536 16.8976H19.8542C19.8649 17.1453 20.0722 17.3435 20.328 17.3435C20.591 17.3435 20.804 17.135 20.804 16.878C20.804 16.8661 20.8013 16.8549 20.8005 16.8432C20.8189 16.5585 20.8553 16.2798 20.9345 16.0152C20.955 15.9396 20.9916 15.8696 21.015 15.7956L21.0525 15.6853L21.1066 15.5823C21.1436 15.5149 21.167 15.4409 21.2082 15.3762C21.2508 15.3124 21.2906 15.2478 21.328 15.1824C21.5031 14.938 21.6821 14.7009 21.9011 14.5265C21.9965 14.4231 22.1184 14.3592 22.2181 14.2741C22.2675 14.2305 22.3298 14.2086 22.382 14.1735C22.4367 14.1427 22.4863 14.1045 22.5402 14.077C22.5959 14.0534 22.6495 14.0286 22.7013 14.0033C22.754 13.9803 22.8006 13.9454 22.8549 13.9333C22.9606 13.9027 23.0539 13.855 23.1491 13.8306C23.2448 13.81 23.3332 13.7865 23.4144 13.7617C23.4987 13.7493 23.5768 13.7414 23.6463 13.7287C23.6812 13.7224 23.714 13.7163 23.7451 13.7105C23.7767 13.7078 23.807 13.7094 23.8348 13.7081C23.8902 13.7067 23.9375 13.7041 23.976 13.7016C23.9934 13.7004 24.0084 13.6991 24.022 13.6979C24.0603 13.7009 24.1147 13.7045 24.1835 13.7071C24.2194 13.7078 24.259 13.7086 24.3025 13.7095C24.3445 13.7181 24.3895 13.7262 24.4382 13.7341C24.487 13.7418 24.5385 13.7489 24.5937 13.755C24.6497 13.7588 24.7025 13.7844 24.7614 13.7968C24.8196 13.8123 24.881 13.8256 24.9444 13.8397C25.0045 13.865 25.0672 13.889 25.1324 13.9115C25.1652 13.9223 25.1986 13.9333 25.232 13.9443C25.2441 13.9492 25.2557 13.9552 25.2674 13.9612C25.3311 13.9925 25.4023 14.0117 25.4786 14.0117C25.7417 14.0117 25.9545 13.8032 25.9545 13.5463C25.9544 13.3647 25.8475 13.2092 25.6924 13.1325Z" fill="white"/>
<path d="M26.8033 20.6455L26.8038 20.6433C26.7987 20.6419 26.7932 20.6399 26.7881 20.6385C26.7683 20.6332 26.7507 20.6286 26.7312 20.6236H26.731C26.4664 20.5532 26.215 20.4899 25.9825 20.4345C25.7305 20.3876 25.4973 20.3546 25.2868 20.3231C25.1817 20.3083 25.0819 20.2943 24.9878 20.2813C24.8941 20.2722 24.8059 20.2685 24.7238 20.2631C24.5593 20.2546 24.4195 20.2475 24.3063 20.2416C24.2194 20.2381 24.157 20.2344 24.1019 20.2321L24.0829 20.23C24.0829 20.23 24.0488 20.2271 23.9797 20.2238C23.9414 20.222 23.8903 20.2134 23.8348 20.2121C23.807 20.2106 23.7767 20.2123 23.7451 20.2096C23.714 20.2037 23.6811 20.1977 23.6463 20.1913C23.5768 20.1786 23.4987 20.1708 23.4144 20.1584C23.3332 20.1335 23.2448 20.1102 23.1491 20.0895C23.0539 20.0651 22.9606 20.0174 22.8549 19.9867C22.8006 19.9746 22.754 19.9398 22.7013 19.9168C22.6495 19.8913 22.5959 19.8668 22.5402 19.843C22.4863 19.8155 22.4367 19.7774 22.382 19.7467C22.3298 19.7114 22.2675 19.6895 22.2181 19.646C22.1184 19.5608 21.9965 19.497 21.9011 19.3937C21.6821 19.2192 21.5031 18.982 21.328 18.7377C21.2933 18.6773 21.2563 18.6179 21.2175 18.559L21.2157 18.56C21.1298 18.4388 20.9871 18.3592 20.825 18.3592C20.562 18.3592 20.3491 18.5676 20.3491 18.8247C20.3491 18.9113 20.375 18.9916 20.4171 19.0612C20.4526 19.1318 20.4872 19.1861 20.5378 19.2476C20.7602 19.5638 20.9951 19.8635 21.2729 20.09C21.3977 20.2194 21.55 20.3069 21.6805 20.413C21.7452 20.4672 21.823 20.4989 21.8906 20.5436C21.9607 20.5837 22.0257 20.6305 22.0949 20.666C22.1653 20.699 22.2343 20.7311 22.3018 20.7625C22.3697 20.7926 22.431 20.8339 22.5001 20.8519C22.6352 20.8944 22.7575 20.952 22.8797 20.9843C23.0029 21.0129 23.1168 21.0427 23.2224 21.0726C23.3308 21.0886 23.4304 21.1034 23.5204 21.1166C23.5653 21.1243 23.6078 21.1315 23.6478 21.1383C23.6882 21.1419 23.7267 21.1411 23.7625 21.1429C23.8335 21.1464 23.8444 21.1469 23.8934 21.1491C23.8993 21.1495 23.9321 21.153 23.9376 21.1534L23.9672 21.1574C23.9672 21.1574 24.0681 21.1663 24.2732 21.1748C24.3761 21.1799 24.5027 21.1864 24.6513 21.1941C24.7258 21.1989 24.8059 21.2017 24.8908 21.2099C24.9757 21.222 25.0656 21.2348 25.1607 21.2483C25.3512 21.2772 25.5625 21.3066 25.7904 21.3485C25.9923 21.3975 26.219 21.4478 26.4487 21.508C26.5061 21.5318 26.569 21.5452 26.6349 21.5452C26.898 21.5452 27.111 21.3368 27.111 21.0796C27.1111 20.8806 26.9827 20.7119 26.8033 20.6455Z" fill="white"/>
<path d="M33.4386 27.2013C33.3719 26.9739 33.2834 26.7533 33.2031 26.5321C33.1614 26.4218 33.1205 26.3117 33.0765 26.2034C33.0262 26.0976 32.9762 25.992 32.9264 25.8867C32.8225 25.6783 32.728 25.4661 32.6118 25.2683C32.4943 25.0711 32.375 24.8765 32.2547 24.6849C31.7485 23.9373 31.1804 23.2629 30.5482 22.7234C30.2467 22.4375 29.9117 22.2084 29.5973 21.9758C29.4409 21.8589 29.2701 21.7672 29.1101 21.6666C29.0469 21.6295 28.9849 21.5921 28.9233 21.555C28.8445 21.4988 28.7485 21.4645 28.6433 21.4645C28.3805 21.4645 28.1677 21.6729 28.1677 21.9299C28.1677 22.1094 28.2726 22.2633 28.4245 22.3411C28.4882 22.3807 28.5554 22.4263 28.6186 22.4635C28.7631 22.5549 28.9182 22.6364 29.0598 22.7431C29.3433 22.9543 29.648 23.1601 29.92 23.4197C30.4931 23.9065 31.0056 24.5192 31.4645 25.1947C31.5716 25.3693 31.6793 25.545 31.7879 25.7223C31.893 25.9015 31.978 26.0938 32.072 26.282C32.1175 26.377 32.1627 26.4723 32.2085 26.5682C32.2481 26.6662 32.2845 26.766 32.3221 26.8654C32.3944 27.0662 32.4753 27.2646 32.5357 27.4705C32.7856 28.2951 32.9031 29.1647 32.918 30.0318C32.9031 30.8987 32.7856 31.768 32.5357 32.5926C32.5111 32.6762 32.4826 32.759 32.4531 32.8413L32.4543 32.8415C32.4329 32.8948 32.4199 32.9523 32.4199 33.0131C32.4199 33.2703 32.633 33.4787 32.8958 33.4787C33.0974 33.4787 33.2688 33.3556 33.338 33.1823L33.3393 33.1828C33.3835 33.0624 33.4024 32.9856 33.4386 32.8618C33.715 31.9504 33.8462 30.9887 33.8611 30.0318C33.8462 29.0746 33.7151 28.113 33.4386 27.2013Z" fill="white"/>
<path d="M18.2787 36.7745L18.2801 36.773C18.101 36.6234 17.9261 36.4676 17.7579 36.3037C17.1418 35.6825 16.6206 34.976 16.2176 34.2631C16.1254 34.0804 16.0368 33.8995 15.9514 33.7222C15.9098 33.6329 15.8651 33.5463 15.8282 33.4572C15.7941 33.3674 15.7603 33.2784 15.7271 33.1908C15.663 33.0141 15.6004 32.843 15.5399 32.6767C15.492 32.5073 15.4492 32.3419 15.4081 32.1838C15.3702 32.0245 15.3226 31.8741 15.3007 31.727C15.2776 31.5799 15.2554 31.4408 15.2345 31.3095C15.2153 31.1781 15.1974 31.0553 15.1807 30.9415C15.1737 30.8272 15.1674 30.7223 15.1615 30.6275C15.1501 30.3858 15.1421 30.211 15.1376 30.1154C15.1385 30.1046 15.1409 30.0942 15.1409 30.0829C15.1409 29.826 14.928 29.6173 14.6652 29.6173C14.4203 29.6173 14.221 29.7992 14.1946 30.0319H14.1906C14.1906 30.0319 14.1911 30.0431 14.1916 30.0611C14.1912 30.0686 14.1893 30.0757 14.1893 30.0829C14.1893 30.0979 14.1925 30.1119 14.1937 30.1267C14.1978 30.233 14.2057 30.4256 14.2204 30.6901C14.2271 30.7946 14.2344 30.9105 14.2425 31.0366C14.2607 31.1622 14.2803 31.298 14.3013 31.4433C14.3243 31.5882 14.349 31.7423 14.3749 31.9047C14.3997 32.0673 14.4509 32.2342 14.4932 32.41C14.5384 32.5854 14.5861 32.7678 14.6398 32.9552C14.7043 33.139 14.7732 33.3292 14.846 33.5233C14.883 33.6204 14.9204 33.7187 14.9583 33.818C14.9992 33.9163 15.048 34.0126 15.0943 34.1112C15.1884 34.3076 15.2866 34.5075 15.3889 34.7089C15.8334 35.4979 16.4098 36.2787 17.0911 36.9637C17.2626 37.1311 17.4409 37.2907 17.623 37.445C17.6358 37.4581 17.6502 37.4688 17.6642 37.4803C17.6642 37.4803 17.6646 37.4803 17.6647 37.4808C17.747 37.5471 17.851 37.5889 17.9659 37.5889C18.2288 37.5889 18.4419 37.3802 18.4419 37.1233C18.4419 36.9834 18.378 36.8601 18.2787 36.7745Z" fill="white"/>
<path d="M31.6328 27.7402C31.579 27.5558 31.5054 27.3787 31.4413 27.1991C31.4074 27.1103 31.3738 27.0213 31.3401 26.9329C31.2992 26.8474 31.2583 26.7623 31.2174 26.6772C31.133 26.5094 31.0587 26.3365 30.9639 26.1767C30.8666 26.018 30.7701 25.8609 30.6746 25.7046C30.2631 25.1006 29.806 24.5515 29.2918 24.1162C29.0492 23.8823 28.7752 23.7004 28.5221 23.5101C28.3959 23.414 28.2564 23.3424 28.1273 23.2605C27.9954 23.1831 27.8688 23.1012 27.7382 23.0335C27.6057 22.9697 27.4753 22.9071 27.3483 22.8458C27.2199 22.788 27.0988 22.721 26.9704 22.6791C26.7172 22.5893 26.4802 22.4925 26.2492 22.4281C26.0168 22.369 25.7994 22.3137 25.5983 22.2628C25.3941 22.2258 25.2051 22.1999 25.035 22.1738C24.9499 22.1614 24.869 22.1497 24.7934 22.1387C24.7174 22.1315 24.6456 22.1293 24.5789 22.1251C24.5657 22.1245 24.5539 22.1237 24.541 22.1231L24.5288 22.1225C24.5162 22.1215 24.5152 22.123 24.5021 22.123C24.2392 22.123 24.0262 22.3314 24.0262 22.5884C24.0262 22.8338 24.216 23.0337 24.4616 23.052L24.4829 23.0562C24.497 23.057 24.4919 23.0554 24.5066 23.056C24.5655 23.0596 24.6289 23.0609 24.6961 23.0674C24.7629 23.0773 24.8341 23.0877 24.909 23.0993C25.059 23.1227 25.2261 23.1446 25.406 23.1768C25.5834 23.222 25.7752 23.2707 25.9804 23.3228C26.1839 23.3792 26.3921 23.4663 26.616 23.5443C26.7294 23.5803 26.8355 23.6409 26.9488 23.6919C27.061 23.7457 27.1759 23.8003 27.293 23.8563C27.4081 23.9166 27.5193 23.9891 27.6359 24.0574C27.7498 24.13 27.8736 24.1918 27.9846 24.2773C28.2067 24.4467 28.4506 24.6048 28.6635 24.8127C29.1187 25.1955 29.5203 25.6826 29.8846 26.2144C29.969 26.3523 30.0539 26.4911 30.1398 26.631C30.2238 26.7716 30.288 26.9247 30.3632 27.0728L30.4719 27.2977L30.5603 27.5326C30.6164 27.6912 30.6826 27.8471 30.7297 28.0094C30.9263 28.6591 31.0167 29.3451 31.0319 30.0318C31.0167 30.7183 30.9263 31.404 30.7297 32.0537C30.6826 32.2164 30.6164 32.3722 30.5603 32.5306L30.4719 32.7655L30.3632 32.9907C30.288 33.1385 30.2238 33.2916 30.1398 33.4322C30.0539 33.5723 29.969 33.7109 29.8846 33.8487C29.8331 33.9241 29.7805 33.9979 29.7275 34.0711L29.7285 34.0719C29.6645 34.1515 29.6243 34.2505 29.6243 34.3593C29.6243 34.6168 29.8374 34.8249 30.1002 34.8249C30.2743 34.8249 30.4249 34.7326 30.5078 34.5962C30.575 34.5059 30.5988 34.4699 30.6746 34.3588C30.7701 34.2024 30.8667 34.0451 30.9639 33.8865C31.0587 33.7268 31.133 33.554 31.2174 33.3856C31.2584 33.3009 31.2993 33.2158 31.3402 33.1305C31.3738 33.0419 31.4074 32.9531 31.4413 32.864C31.5055 32.6847 31.5791 32.5073 31.6329 32.3229C31.8557 31.5861 31.9599 30.8083 31.975 30.0318C31.9598 29.255 31.8557 28.4772 31.6328 27.7402Z" fill="white"/>
<path d="M22.6029 21.8805C22.5952 21.877 22.5868 21.8733 22.5861 21.8731C22.4367 21.8327 22.3101 21.7713 22.1454 21.7171C22.0616 21.693 21.9853 21.6455 21.9021 21.6083C21.8198 21.5694 21.7355 21.5298 21.6494 21.4891C21.565 21.4455 21.4847 21.3899 21.3991 21.3405C21.316 21.2866 21.223 21.2447 21.1428 21.1802C20.9818 21.053 20.7989 20.9418 20.6447 20.7864C20.3077 20.5077 20.0172 20.1454 19.7478 19.7575C19.6857 19.6564 19.623 19.5549 19.5601 19.4523C19.4975 19.3496 19.4538 19.2361 19.3976 19.1283L19.3161 18.9644L19.2535 18.7917C19.2137 18.6755 19.1623 18.5626 19.1284 18.4436C18.9851 17.9683 18.9217 17.4661 18.9062 16.9601C18.9217 16.4541 18.9851 15.9519 19.1284 15.4765C19.1623 15.3575 19.2137 15.2445 19.2535 15.1285L19.3161 14.9558L19.3976 14.792C19.4028 14.782 19.4071 14.7718 19.412 14.7618C19.4584 14.6901 19.486 14.6058 19.486 14.5147C19.486 14.2576 19.2731 14.0492 19.0101 14.0492C18.8049 14.0492 18.6317 14.1769 18.565 14.355L18.5635 14.3545C18.5565 14.3685 18.5504 14.3827 18.5432 14.3966L18.4481 14.5909L18.3725 14.7947C18.3245 14.9319 18.2658 15.0665 18.2253 15.2072C18.0554 15.7697 17.9785 16.3638 17.963 16.9601C17.9785 17.5563 18.0554 18.1504 18.2253 18.7128C18.2658 18.8538 18.3245 18.9883 18.3725 19.1254L18.4481 19.3293L18.5432 19.5238C18.609 19.6516 18.6628 19.7848 18.7361 19.9065C18.8105 20.0278 18.8843 20.1481 18.9575 20.2673C19.2745 20.7274 19.6204 21.1519 20.0165 21.4829C20.2001 21.6643 20.4133 21.7991 20.605 21.9473C20.7007 22.0224 20.8094 22.0742 20.9075 22.1375C21.0086 22.1962 21.1045 22.2603 21.2042 22.3122C21.3059 22.3605 21.4054 22.4079 21.5026 22.4541C21.6009 22.4981 21.6921 22.5523 21.7907 22.5822C21.9733 22.6444 22.1428 22.7155 22.3091 22.7643L22.3099 22.7619C22.3593 22.7792 22.4115 22.79 22.4668 22.79C22.7296 22.79 22.9428 22.5817 22.9428 22.3246C22.9428 22.1139 22.799 21.9383 22.6029 21.8805Z" fill="white"/>
<path d="M28.0207 28.8177C27.9934 28.7202 27.9494 28.6284 27.9176 28.5335L27.8676 28.3922L27.7999 28.2589C27.7534 28.171 27.7197 28.0775 27.6679 27.9934C27.6146 27.9106 27.5633 27.8278 27.5143 27.744C27.2919 27.428 27.0569 27.1286 26.7789 26.9017C26.6543 26.7723 26.502 26.6845 26.3716 26.5787C26.3069 26.5246 26.2291 26.4926 26.1616 26.4481C26.0913 26.4081 26.0264 26.3613 25.9571 26.3257C25.8869 26.2925 25.8177 26.2607 25.7504 26.2289C25.6822 26.1992 25.6211 26.1579 25.5518 26.1399C25.4166 26.0971 25.2946 26.0398 25.1723 26.0075C25.1108 25.9931 25.0517 25.9785 24.9948 25.9638L24.9944 25.9652C24.9595 25.9575 24.9236 25.9523 24.8862 25.9523C24.6234 25.9523 24.4106 26.1607 24.4106 26.4176C24.4106 26.623 24.5476 26.7956 24.7366 26.8571L24.7361 26.8581C24.817 26.8829 24.8079 26.8817 24.9034 26.9022C24.9979 26.9265 25.0914 26.9745 25.1973 27.0053C25.2516 27.017 25.2981 27.0518 25.3509 27.075C25.4027 27.1003 25.4563 27.1251 25.5119 27.1486C25.566 27.1761 25.6155 27.2141 25.6701 27.2449C25.7221 27.2804 25.7843 27.3022 25.8341 27.3457C25.9336 27.4308 26.0557 27.4948 26.151 27.5984C26.3698 27.7725 26.549 28.0097 26.7244 28.2541C26.7615 28.3194 26.8014 28.3839 26.8439 28.4475C26.8851 28.5122 26.9083 28.5863 26.9455 28.6539L26.9996 28.7569L27.0367 28.8673C27.0605 28.9413 27.0971 29.0114 27.1176 29.0867C27.2078 29.3877 27.2439 29.7059 27.2596 30.0318C27.2439 30.357 27.2078 30.6755 27.1176 30.9765C27.0971 31.052 27.0605 31.1224 27.0367 31.1964L26.9996 31.3062L26.9455 31.4093C26.9083 31.4769 26.8851 31.5509 26.8439 31.6155C26.8014 31.6795 26.7615 31.7436 26.7244 31.8093C26.549 32.0538 26.3698 32.2907 26.151 32.4653C26.0557 32.5684 25.9336 32.6324 25.8341 32.7175C25.7843 32.7613 25.7221 32.783 25.6701 32.8186C25.6155 32.8493 25.566 32.8871 25.5119 32.9147C25.4563 32.9384 25.4027 32.9629 25.3509 32.9884C25.2981 33.0115 25.2516 33.0462 25.1973 33.0582L25.1981 33.061C25.0085 33.122 24.8711 33.2949 24.8711 33.5008C24.8711 33.758 25.0841 33.9663 25.3466 33.9663C25.404 33.9663 25.4581 33.9548 25.5089 33.9366L25.5094 33.9383C25.5235 33.9333 25.5372 33.9278 25.5518 33.9235C25.6211 33.9053 25.6822 33.8642 25.7504 33.834C25.8177 33.8027 25.8869 33.7707 25.9571 33.7374C26.0264 33.7021 26.0913 33.6551 26.1616 33.6153C26.2291 33.5708 26.3069 33.5385 26.3716 33.4847C26.502 33.3786 26.6544 33.2909 26.779 33.1615C27.057 32.9351 27.2919 32.6356 27.5143 32.3192C27.5633 32.2356 27.6146 32.1525 27.668 32.07C27.7197 31.9859 27.7534 31.8921 27.7999 31.8046L27.8676 31.6712L27.9176 31.5296C27.9495 31.4348 27.9934 31.3433 28.0208 31.2457C28.1375 30.8577 28.187 30.4471 28.2027 30.0318C28.187 29.6158 28.1375 29.2055 28.0207 28.8177Z" fill="white"/>
<path d="M29.1234 35.8769C29.1234 35.62 28.9107 35.4113 28.6474 35.4113C28.5352 35.4113 28.433 35.4509 28.3515 35.5152L28.3512 35.5144C28.2279 35.608 28.1031 35.6956 27.9845 35.7861C27.8736 35.8717 27.7498 35.9333 27.6358 36.0058C27.5193 36.0738 27.4081 36.1468 27.2929 36.2069C27.1759 36.2632 27.0609 36.318 26.9487 36.3715C26.8355 36.4226 26.7294 36.4831 26.616 36.5191C26.392 36.5972 26.1839 36.6838 25.9804 36.74C25.7752 36.7928 25.5834 36.8414 25.406 36.8867C25.2261 36.9184 25.059 36.9409 24.9089 36.9642C24.8341 36.9752 24.7628 36.9862 24.6961 36.996C24.6289 37.0025 24.5655 37.0035 24.5066 37.0075C24.3889 37.0132 24.2888 37.0185 24.2076 37.0228C24.129 37.0263 24.0686 37.029 24.0267 37.031C23.9503 37.0275 23.8104 37.0205 23.6168 37.0107C23.5411 37.007 23.4574 37.0025 23.3662 36.9977C23.2756 36.9842 23.1776 36.9694 23.073 36.954C22.9686 36.9377 22.8573 36.9209 22.7401 36.9034C22.6223 36.8877 22.5032 36.8476 22.3765 36.8184C22.2504 36.7861 22.1192 36.7521 21.9832 36.7173C21.8514 36.6692 21.715 36.6202 21.5747 36.5697C21.5048 36.5442 21.4339 36.5181 21.362 36.4921C21.2912 36.4633 21.2226 36.4273 21.1516 36.3945C21.0105 36.3273 20.8663 36.258 20.72 36.1881C20.1525 35.8712 19.5889 35.4642 19.0916 34.9833C18.7527 34.6396 18.4374 34.2343 18.1763 33.8465C18.1754 33.8458 18.1748 33.8445 18.1741 33.8435C18.1698 33.837 18.1652 33.8308 18.1609 33.8245L18.1593 33.8263C18.0723 33.7137 17.936 33.6396 17.7806 33.6396C17.518 33.6396 17.3048 33.848 17.3048 34.1052C17.3048 34.2005 17.3344 34.2891 17.3846 34.3626L17.3839 34.3631C17.6834 34.8114 18.0321 35.2467 18.4247 35.6433C18.987 36.1892 19.6257 36.6505 20.2695 37.008C20.4354 37.0878 20.5988 37.1666 20.7586 37.2431C20.8392 37.2802 20.9172 37.3204 20.9976 37.3532C21.0789 37.383 21.1593 37.4125 21.2386 37.4417C21.3977 37.499 21.5525 37.5543 21.7023 37.6081C21.8564 37.6481 22.0051 37.6867 22.1479 37.7242C22.2917 37.7577 22.4271 37.801 22.5604 37.8198C22.6933 37.84 22.8194 37.8593 22.9378 37.8776C23.0563 37.8953 23.1675 37.9113 23.2701 37.9261C23.3735 37.9323 23.4684 37.9381 23.5541 37.9426C23.7299 37.9511 23.8666 37.9574 23.9586 37.9614L23.9924 37.9636C23.9924 37.9636 24.0028 37.9661 24.0281 37.9646C24.0555 37.9614 24.0555 37.9614 24.0555 37.9614L24.0934 37.9621C24.134 37.9604 24.1824 37.9584 24.2408 37.9558C24.3325 37.9506 24.4457 37.9448 24.5789 37.9386C24.6456 37.9338 24.7173 37.9318 24.7934 37.9251C24.869 37.9136 24.9498 37.9021 25.035 37.8896C25.2051 37.8635 25.3941 37.8375 25.5983 37.8005C25.7994 37.7492 26.0167 37.6942 26.2492 37.6352C26.4802 37.5706 26.7172 37.474 26.9704 37.384C27.0988 37.3422 27.2198 37.2754 27.3482 37.2171C27.4753 37.1561 27.6057 37.0935 27.7381 37.03C27.8688 36.9617 27.9954 36.8804 28.1273 36.8026C28.2564 36.7208 28.3959 36.6495 28.522 36.5529C28.6539 36.4539 28.7914 36.3565 28.9271 36.2537L28.9263 36.2527C29.0454 36.1679 29.1234 36.0317 29.1234 35.8769Z" fill="white"/>
<path d="M29.6231 37.8275C29.6231 37.5706 29.41 37.3619 29.1472 37.3619C29.0502 37.3619 28.9602 37.3908 28.8849 37.4398L28.8841 37.4381C28.7952 37.4933 28.7053 37.5451 28.6185 37.5996C28.471 37.6867 28.3292 37.777 28.1837 37.8531C28.0354 37.9246 27.8898 37.9949 27.7478 38.0632C27.6042 38.1283 27.4683 38.2018 27.3252 38.2494C27.0422 38.351 26.7769 38.4577 26.5186 38.5303C26.2593 38.5991 26.0157 38.6601 25.7903 38.7147C25.5624 38.7565 25.3511 38.7862 25.1606 38.8147C25.0655 38.8285 24.9756 38.8416 24.8907 38.8535C24.8058 38.8618 24.7257 38.8643 24.6512 38.8691C24.5025 38.8768 24.3759 38.8831 24.2731 38.8883C24.1635 38.893 24.0821 38.8968 24.0291 38.8988C23.9391 38.8946 23.7553 38.8863 23.4912 38.8743C23.45 38.8718 23.399 38.87 23.3463 38.869C23.3328 38.868 23.3198 38.8655 23.3061 38.8655C23.0433 38.8655 22.8303 39.0739 22.8303 39.3308C22.8303 39.5848 23.038 39.7901 23.296 39.7954V39.7974C23.3415 39.8007 23.3864 39.8032 23.4283 39.8059C23.6676 39.8189 23.8167 39.8252 23.9292 39.8292L23.9671 39.8314C23.9671 39.8314 23.9944 39.8354 24.0199 39.8329C24.0666 39.8344 24.0745 39.8314 24.0745 39.8314H24.1123C24.1673 39.8287 24.2193 39.8252 24.3062 39.8219C24.4195 39.8157 24.5592 39.8084 24.7237 39.8001C24.8058 39.7949 24.894 39.7912 24.9878 39.7819C25.0818 39.7689 25.1816 39.7546 25.2867 39.7401C25.4972 39.7088 25.7305 39.6756 25.9824 39.6285C26.2318 39.5698 26.5015 39.5015 26.788 39.4246C27.0731 39.3444 27.3675 39.2283 27.68 39.1147C27.8377 39.0609 27.9886 38.9811 28.147 38.9088C28.3042 38.833 28.465 38.7554 28.6287 38.6761C28.7899 38.5919 28.9471 38.4928 29.1101 38.3967C29.2023 38.3389 29.2978 38.2831 29.3924 38.2248C29.5303 38.143 29.6231 37.9964 29.6231 37.8275Z" fill="white"/>
</svg>
