<svg width="44" height="45" viewBox="0 0 44 45" fill="none" xmlns="http://www.w3.org/2000/svg">
<path d="M14.8711 33.1875C15.6797 33.1875 16.1836 32.6719 16.1836 31.8281V25.9219H22.4531C23.1562 25.9219 23.6367 25.4883 23.6367 24.8086C23.6367 24.1406 23.1562 23.707 22.4531 23.707H16.1836V18.3633H23.0742C23.8008 18.3633 24.3047 17.918 24.3047 17.2266C24.3047 16.5352 23.8125 16.0898 23.0742 16.0898H14.8711C14.0508 16.0898 13.5586 16.6055 13.5586 17.4492V31.8281C13.5586 32.6719 14.0508 33.1875 14.8711 33.1875ZM27.3633 33.2227C28.1133 33.2227 28.6289 32.707 28.6289 31.8867V25.5938C28.6289 24.0586 29.332 22.8984 31.0664 22.8867C31.5938 22.8867 31.9688 22.7812 32.2266 22.5586C32.4727 22.3594 32.6016 22.0664 32.6016 21.668C32.6016 21.2695 32.4961 20.9648 32.2617 20.7773C32.0508 20.5781 31.7109 20.4727 31.2656 20.4727C30.0352 20.4727 28.8984 21.3984 28.5586 22.7812H28.5V21.7266C28.5 20.9531 28.0078 20.4492 27.3047 20.4492C26.5898 20.4492 26.0977 20.9531 26.0977 21.7266V31.8867C26.0977 32.707 26.6016 33.2227 27.3633 33.2227Z" fill="black"/>
<g opacity="0.65" filter="url(#filter0_f_150_44)">
<path d="M28 20C28 24.4183 24.4183 28 20 28C15.5817 28 12 24.4183 12 20C12 15.5817 15.5817 12 20 12C24.4183 12 28 15.5817 28 20Z" fill="#FF0000"/>
<path d="M32 25C32 29.4183 28.4183 33 24 33C19.5817 33 16 29.4183 16 25C16 20.5817 19.5817 17 24 17C28.4183 17 32 20.5817 32 25Z" fill="#0066FF"/>
</g>
<defs>
<filter id="filter0_f_150_44" x="0" y="0" width="44" height="45" filterUnits="userSpaceOnUse" color-interpolation-filters="sRGB">
<feFlood flood-opacity="0" result="BackgroundImageFix"/>
<feBlend mode="normal" in="SourceGraphic" in2="BackgroundImageFix" result="shape"/>
<feGaussianBlur stdDeviation="6" result="effect1_foregroundBlur_150_44"/>
</filter>
</defs>
</svg>
