<svg width="44" height="45" viewBox="0 0 44 45" fill="none" xmlns="http://www.w3.org/2000/svg">
<path d="M10.8711 33H19.2617C19.9883 33 20.4805 32.5547 20.4805 31.8633C20.4805 31.1719 19.9883 30.7266 19.2617 30.7266H12.1836V25.4766H18.875C19.5781 25.4766 20.0469 25.043 20.0469 24.3867C20.0469 23.7188 19.5664 23.2969 18.875 23.2969H12.1836V18.3633H19.2617C19.9883 18.3633 20.4805 17.918 20.4805 17.2266C20.4805 16.5352 19.9883 16.0898 19.2617 16.0898H10.8711C10.0508 16.0898 9.55859 16.6055 9.55859 17.4492V31.6406C9.55859 32.4844 10.0508 33 10.8711 33ZM23.9492 33.2227C24.6875 33.2227 25.2148 32.7188 25.2148 31.8867V25.8164C25.2148 23.9062 26.3633 22.6406 28.1445 22.6406C29.9023 22.6406 30.7695 23.6602 30.7695 25.5117V31.8867C30.7695 32.7188 31.2969 33.2227 32.0352 33.2227C32.7852 33.2227 33.3125 32.7188 33.3125 31.8867V25.0195C33.3125 22.1953 31.7539 20.4609 29.0352 20.4609C27.1367 20.4609 25.8477 21.3047 25.1797 22.7109H25.1211V21.7383C25.1211 20.9531 24.6172 20.4492 23.8906 20.4492C23.1523 20.4492 22.6836 20.9531 22.6836 21.7266V31.8867C22.6836 32.7188 23.1992 33.2227 23.9492 33.2227Z" fill="black"/>
<g opacity="0.65" filter="url(#filter0_f_150_43)">
<path d="M28 20C28 24.4183 24.4183 28 20 28C15.5817 28 12 24.4183 12 20C12 15.5817 15.5817 12 20 12C24.4183 12 28 15.5817 28 20Z" fill="#B1133B"/>
<path d="M32 25C32 29.4183 28.4183 33 24 33C19.5817 33 16 29.4183 16 25C16 20.5817 19.5817 17 24 17C28.4183 17 32 20.5817 32 25Z" fill="#00245E"/>
</g>
<defs>
<filter id="filter0_f_150_43" x="0" y="0" width="44" height="45" filterUnits="userSpaceOnUse" color-interpolation-filters="sRGB">
<feFlood flood-opacity="0" result="BackgroundImageFix"/>
<feBlend mode="normal" in="SourceGraphic" in2="BackgroundImageFix" result="shape"/>
<feGaussianBlur stdDeviation="6" result="effect1_foregroundBlur_150_43"/>
</filter>
</defs>
</svg>
