<svg width="44" height="45" viewBox="0 0 44 45" fill="none" xmlns="http://www.w3.org/2000/svg">
<path d="M28.744 21.408C27.864 21.664 26.96 21.96 26.032 22.296C25.12 22.632 24.24 23.008 23.392 23.424C22.48 23.872 21.664 24.376 20.944 24.936C20.224 25.48 19.648 26.08 19.216 26.736C18.8 27.376 18.592 28.08 18.592 28.848C18.592 29.568 18.824 30.192 19.288 30.72C19.752 31.264 20.368 31.704 21.136 32.04C21.92 32.392 22.8 32.656 23.776 32.832C24.768 33.008 25.776 33.096 26.8 33.096C27.84 33.096 28.856 33.008 29.848 32.832C30.856 32.672 31.744 32.416 32.512 32.064L32.608 32.592C31.44 33.888 30.128 34.84 28.672 35.448C27.216 36.072 25.792 36.384 24.4 36.384C23.12 36.384 21.944 36.128 20.872 35.616C19.8 35.12 18.936 34.392 18.28 33.432C17.64 32.472 17.32 31.296 17.32 29.904C17.32 28.608 17.616 27.344 18.208 26.112C18.816 24.864 19.68 23.648 20.8 22.464C19.872 22.16 19.192 21.712 18.76 21.12C18.328 20.528 18.112 19.864 18.112 19.128C18.112 18.488 18.232 17.856 18.472 17.232C18.712 16.592 19.048 16.008 19.48 15.48C19.912 14.952 20.408 14.536 20.968 14.232C21.528 13.912 22.128 13.752 22.768 13.752C23.456 13.752 24.136 13.928 24.808 14.28C25.48 14.632 26.088 15.16 26.632 15.864L26.416 16.272C25.792 15.984 25.048 15.84 24.184 15.84C23.448 15.84 22.728 15.944 22.024 16.152C21.32 16.36 20.736 16.656 20.272 17.04C19.808 17.424 19.576 17.888 19.576 18.432C19.576 18.784 19.768 19.104 20.152 19.392C20.552 19.68 21.024 19.92 21.568 20.112C22.112 20.288 22.6 20.416 23.032 20.496C23.368 20.352 23.776 20.184 24.256 19.992C24.752 19.784 25.368 19.528 26.104 19.224C26.856 18.904 27.792 18.512 28.912 18.048L29.104 18.264L28.744 21.408Z" fill="black"/>
<g opacity="0.65" filter="url(#filter0_f_149_42)">
<path d="M28 20C28 24.4183 24.4183 28 20 28C15.5817 28 12 24.4183 12 20C12 15.5817 15.5817 12 20 12C24.4183 12 28 15.5817 28 20Z" fill="#B7242A"/>
<path d="M32 25C32 29.4183 28.4183 33 24 33C19.5817 33 16 29.4183 16 25C16 20.5817 19.5817 17 24 17C28.4183 17 32 20.5817 32 25Z" fill="#31C360"/>
</g>
<defs>
<filter id="filter0_f_149_42" x="0" y="0" width="44" height="45" filterUnits="userSpaceOnUse" color-interpolation-filters="sRGB">
<feFlood flood-opacity="0" result="BackgroundImageFix"/>
<feBlend mode="normal" in="SourceGraphic" in2="BackgroundImageFix" result="shape"/>
<feGaussianBlur stdDeviation="6" result="effect1_foregroundBlur_149_42"/>
</filter>
</defs>
</svg>
