<svg width="40" height="41" viewBox="0 0 40 41" fill="none" xmlns="http://www.w3.org/2000/svg">
<path fill-rule="evenodd" clip-rule="evenodd" d="M6.8976 7.08241C8.19451 8.0932 8.68104 8.01609 11.1165 7.8602L34.076 6.53771C34.563 6.53771 34.1581 6.0717 33.9956 5.99427L30.1826 3.34992C29.4519 2.80577 28.4785 2.18261 26.6129 2.3385L4.38112 3.89399C3.57033 3.97111 3.4084 4.36 3.73127 4.6717L6.8976 7.08241ZM8.27605 12.2153V35.3892C8.27605 36.6347 8.92484 37.1006 10.3851 37.0235L35.6176 35.6229C37.0786 35.5459 37.2414 34.6892 37.2414 33.6775V10.6591C37.2414 9.64901 36.8363 9.10431 35.942 9.18206L9.5737 10.6591C8.60057 10.7375 8.27597 11.2045 8.27597 12.2153H8.27605ZM33.1856 13.4584C33.3473 14.159 33.1856 14.8589 32.4539 14.9377L31.2382 15.1701V32.2785C30.1826 32.8228 29.2092 33.1339 28.3981 33.1339C27.0994 33.1339 26.7742 32.7448 25.8015 31.579L17.849 19.6029V31.1901L20.3655 31.7348C20.3655 31.7348 20.3655 33.1339 18.3352 33.1339L12.7382 33.4454C12.5756 33.1339 12.7382 32.3569 13.306 32.2013L14.7665 31.8129V16.4925L12.7386 16.3366C12.576 15.636 12.981 14.6258 14.1177 14.5475L20.122 14.1592L28.3981 26.2911V15.5589L26.288 15.3266C26.1261 14.4701 26.7742 13.8482 27.5856 13.7711L33.1856 13.4584ZM2.5145 1.79443L25.6391 0.160795C28.4789 -0.0728401 29.2095 0.083677 30.9944 1.32739L38.376 6.30439C39.594 7.16024 40 7.39324 40 8.32621V35.6229C40 37.3337 39.3503 38.3454 37.079 38.5002L10.2244 40.0558C8.51936 40.1338 7.7079 39.9007 6.81499 38.8113L1.37903 32.0456C0.40507 30.8002 0 29.8685 0 28.7784V4.51526C0 3.11629 0.649852 1.94929 2.5145 1.79443Z" fill="black"/>
</svg>
