<svg width="87" height="78" viewBox="0 0 87 78" fill="none" xmlns="http://www.w3.org/2000/svg">
<path fill-rule="evenodd" clip-rule="evenodd" d="M86.9979 34.1952C86.9914 33.8985 86.7562 33.6631 86.464 33.6631H76.5498C76.5498 52.2647 61.7577 67.3389 43.5097 67.3389C25.2541 67.3389 10.4609 52.2647 10.4609 33.6631H0.539298C0.247141 33.6631 0.0119341 33.8985 0.00438085 34.193L0 34.2106C0 34.2172 0.00438085 34.2215 0.00438085 34.2303C0.303034 58.4186 19.7025 78 43.5097 78C67.3093 78 86.6982 58.4142 86.9979 34.2303C86.9979 34.2215 87 34.2149 87 34.2106C87 34.2106 86.9979 34.2018 86.9979 34.1952Z" fill="#FB5D2E"/>
<path fill-rule="evenodd" clip-rule="evenodd" d="M43.5036 0C25.2587 0 10.4722 15.0719 10.4722 33.6632H76.5277C76.5277 15.0719 61.7421 0 43.5036 0Z" fill="#16B4F2"/>
<path fill-rule="evenodd" clip-rule="evenodd" d="M76.5277 33.6631C76.5277 52.2587 61.742 67.3263 43.5033 67.3263C25.2581 67.3263 10.4722 52.2587 10.4722 33.6631H76.5277Z" fill="#2C2C96"/>
</svg>
