<svg width="90" height="80" viewBox="0 0 90 80" fill="none" xmlns="http://www.w3.org/2000/svg">
<path fill-rule="evenodd" clip-rule="evenodd" d="M18.287 28.7451L44.9062 79.9079L0.164185 28.7451H18.287Z" fill="#EA6C00"/>
<path fill-rule="evenodd" clip-rule="evenodd" d="M71.533 28.7451L44.9139 79.9079L89.6559 28.7451H71.533Z" fill="#EA6C00"/>
<path fill-rule="evenodd" clip-rule="evenodd" d="M18.2861 28.7451H71.5244L44.9053 79.9079L18.2861 28.7451Z" fill="#FDAD00"/>
<path fill-rule="evenodd" clip-rule="evenodd" d="M44.9053 0.390625L19.6871 3.0083L18.2861 28.7451L44.9053 0.390625Z" fill="#FDD231"/>
<path fill-rule="evenodd" clip-rule="evenodd" d="M44.9052 0.390625L70.1234 3.0083L71.5244 28.7451L44.9052 0.390625Z" fill="#FDD231"/>
<path fill-rule="evenodd" clip-rule="evenodd" d="M89.6559 28.745L70.132 3.0083L71.533 28.745H89.6559Z" fill="#FDAD00"/>
<path fill-rule="evenodd" clip-rule="evenodd" d="M0.164185 28.745L19.6881 3.0083L18.287 28.745H0.164185Z" fill="#FDAD00"/>
<path fill-rule="evenodd" clip-rule="evenodd" d="M44.9053 0.390625L18.2861 28.7451H71.5244L44.9053 0.390625Z" fill="#FEEEB7"/>
</svg>
