<svg width="50" height="40" viewBox="0 0 50 40" fill="none" xmlns="http://www.w3.org/2000/svg">
<g clip-path="url(#clip0_104_154)">
<path d="M7.70734 27.5789L5.09183 28.5353L4.95264 36.322L14.0062 33.0119C10.8983 31.9702 8.6318 30.1342 7.70734 27.5789Z" fill="#FDBD39"/>
<path d="M9.07637 19.343L0 22.6615L5.09182 28.5373L7.70733 27.5809C6.78494 25.0338 7.35416 22.1583 9.07637 19.343Z" fill="#F69833"/>
<path d="M24.3477 8.10479C12.7909 12.3298 5.3391 21.05 7.70739 27.5787L49.5576 12.2778C47.1893 5.74904 35.9046 3.87983 24.3477 8.10479Z" fill="#FECF33"/>
<path d="M32.915 31.7537C44.4719 27.5288 51.9361 18.848 49.5554 12.2798L7.7052 27.5787C10.086 34.149 21.3582 35.9787 32.915 31.7537Z" fill="#EE6723"/>
<path d="M49.5554 12.2778L7.70728 27.5788C8.52579 29.841 11.6523 30.9555 16.0358 30.9555C20.3111 30.9555 25.7831 29.8971 31.4878 27.8117C43.0446 23.5867 51.1737 16.744 49.5554 12.2778Z" fill="#F69833"/>
<path d="M41.227 8.90332C36.9536 8.90332 31.4796 9.96164 25.7749 12.0471C14.2181 16.2721 6.08903 23.1127 7.70736 27.5789L49.5575 12.2779C48.7369 10.0157 45.6124 8.90332 41.227 8.90332Z" fill="#FDBD39"/>
<path d="M38.9147 36.7356C37.6828 36.7356 35.8671 35.6232 33.5154 33.4275C30.7337 30.8306 27.549 27.0256 24.5429 22.7154C21.539 18.4052 19.071 14.0971 17.5918 10.5811C15.9818 6.75118 15.7512 4.3975 16.9083 3.58245C17.1763 3.39948 17.4942 3.30591 17.8183 3.31423C18.7593 3.31423 20.5958 4.01493 23.9883 7.35831L24.0631 7.43108L24.0527 7.53504C24.0298 7.77623 24.009 8.01742 23.9903 8.25653L23.953 8.72851L23.6206 8.39376C19.9643 4.70731 18.3563 4.31018 17.8328 4.31018C17.6832 4.31018 17.5648 4.33929 17.4796 4.39958C16.9769 4.75305 16.9436 6.48296 18.5059 10.1944C19.958 13.6459 22.3907 17.8895 25.3552 22.1436C28.3218 26.3998 31.4588 30.1465 34.1927 32.6977C37.1385 35.4485 38.466 35.7459 38.9002 35.7459C39.0498 35.7459 39.1703 35.7147 39.2617 35.6502C39.7914 35.278 39.7914 33.4255 38.0505 29.4292L37.9695 29.2462L38.144 29.1506C38.3185 29.0549 38.4889 28.9614 38.6467 28.8699L38.8566 28.7514L38.9542 28.9718C40.1882 31.8037 41.3433 35.4028 39.8288 36.4673C39.5608 36.6503 39.2409 36.7439 38.9147 36.7356ZM38.9147 36.2989V36.5173V36.2989Z" fill="#EE6723"/>
<path d="M33.1955 31.6331L33.1789 31.8494C32.8859 35.4672 32.1173 39.8169 30.1105 39.9937C30.0689 39.9978 30.0274 39.9978 29.9879 39.9978C28.6251 39.9978 27.335 38.0433 26.1571 34.1906C25.0394 30.5436 24.1731 25.6491 23.7182 20.4074C23.2611 15.1657 23.2674 10.1943 23.7369 6.40803C24.2479 2.28286 25.2202 0.128794 26.6287 0.00404039C26.6702 -0.000118047 26.7139 -0.00219727 26.7554 -0.00219727C27.7443 -0.00219727 29.2338 1.1185 30.7586 6.33734L29.7635 6.52863C29.2546 4.78624 28.6999 3.36822 28.1494 2.39098C27.6404 1.49068 27.1439 0.993748 26.7554 0.993748C26.7429 0.993748 26.7305 0.993748 26.7159 0.995828C26.1052 1.04989 25.216 2.53029 24.7216 6.53071C24.2604 10.2484 24.2542 15.147 24.705 20.3201C25.1558 25.4953 26.0075 30.317 27.1044 33.8974C27.5947 35.5005 28.1327 36.8228 28.6625 37.719C29.1486 38.5465 29.6202 39.0019 29.9879 39.0019C30.0004 39.0019 30.0128 39.0019 30.0253 38.9998C30.6091 38.9499 31.7101 37.4071 32.1734 31.9824L33.1955 31.6331Z" fill="#EE6723"/>
</g>
<defs>
<clipPath id="clip0_104_154">
<rect width="50" height="40" fill="white"/>
</clipPath>
</defs>
</svg>
